<svg width="7" height="10" viewBox="0 0 7 10" fill="none" xmlns="http://www.w3.org/2000/svg">
<path fill-rule="evenodd" clip-rule="evenodd" d="M2.21035 2.47813L2.21811 4.19381H4.50409C4.91009 4.19381 5.23912 3.83833 5.23708 3.40114L5.23651 3.2708C5.23454 2.83354 4.90233 2.47813 4.49627 2.47813H2.52329H2.21035ZM5.52719 6.80173L5.52655 6.664C5.52439 6.17633 5.15427 5.78037 4.70146 5.78037H4.51122H2.2253L2.23395 7.68543H4.71005C5.16286 7.68543 5.52941 7.28879 5.52719 6.80173ZM6.25274 4.85421C6.70764 5.30558 6.99609 5.94886 6.99934 6.664L6.99997 6.80173C7.00614 8.16323 5.98209 9.27131 4.71724 9.27131H4.66126L4.66451 10H3.19179L3.18848 9.27131H2.58486L2.58817 10H1.11545L1.11214 9.27131H0.768354H0.0379725L0.030785 7.68543H0.761167L0.75258 5.78037L0.745329 4.19381L0.737569 2.47813H0.00718742L0 0.891638H1.07417L1.07016 0H2.54288L2.54689 0.891638H3.15057L3.1465 0H4.61928L4.62329 0.899103C5.77951 0.974651 6.70357 2.00779 6.7093 3.2708L6.70987 3.40114C6.71235 3.94847 6.54042 4.45148 6.25274 4.85421Z" fill="#6F6C99"/>
</svg>
