<svg width="24" height="10" viewBox="0 0 24 10" fill="none" xmlns="http://www.w3.org/2000/svg">
<path opacity="0.5" d="M2.03231 3.9V1.896H3.79631C3.96431 1.896 4.12431 1.912 4.27631 1.944C4.43631 1.968 4.57631 2.016 4.69631 2.088C4.81631 2.16 4.91231 2.26 4.98431 2.388C5.05631 2.516 5.09231 2.68 5.09231 2.88C5.09231 3.24 4.98431 3.5 4.76831 3.66C4.55231 3.82 4.27631 3.9 3.94031 3.9H2.03231ZM0.148313 0.431999V9H4.30031C4.68431 9 5.05631 8.952 5.41631 8.856C5.78431 8.76 6.10831 8.612 6.38831 8.412C6.67631 8.212 6.90431 7.956 7.07231 7.644C7.24031 7.324 7.32431 6.948 7.32431 6.516C7.32431 5.98 7.19231 5.524 6.92831 5.148C6.67231 4.764 6.28031 4.496 5.75231 4.344C6.13631 4.16 6.42431 3.924 6.61631 3.636C6.81631 3.348 6.91631 2.988 6.91631 2.556C6.91631 2.156 6.84831 1.82 6.71231 1.548C6.58431 1.276 6.40031 1.06 6.16031 0.9C5.92031 0.732 5.63231 0.612 5.29631 0.539999C4.96031 0.467999 4.58831 0.431999 4.18031 0.431999H0.148313ZM2.03231 7.536V5.184H4.08431C4.49231 5.184 4.82031 5.28 5.06831 5.472C5.31631 5.656 5.44031 5.968 5.44031 6.408C5.44031 6.632 5.40031 6.816 5.32031 6.96C5.24831 7.104 5.14831 7.22 5.02031 7.308C4.89231 7.388 4.74431 7.448 4.57631 7.488C4.40831 7.52 4.23231 7.536 4.04831 7.536H2.03231ZM10.4935 2.016V9H12.3775V2.016H14.9455V0.431999H7.92553V2.016H10.4935ZM21.6455 3.312H23.4695C23.4135 2.816 23.2775 2.376 23.0615 1.992C22.8455 1.608 22.5695 1.288 22.2335 1.032C21.9055 0.768 21.5295 0.568 21.1055 0.431999C20.6895 0.296 20.2455 0.228 19.7735 0.228C19.1175 0.228 18.5255 0.344 17.9975 0.576C17.4775 0.808 17.0375 1.128 16.6775 1.536C16.3175 1.944 16.0415 2.424 15.8495 2.976C15.6575 3.52 15.5615 4.112 15.5615 4.752C15.5615 5.376 15.6575 5.96 15.8495 6.504C16.0415 7.04 16.3175 7.508 16.6775 7.908C17.0375 8.308 17.4775 8.624 17.9975 8.856C18.5255 9.08 19.1175 9.192 19.7735 9.192C20.3015 9.192 20.7855 9.112 21.2255 8.952C21.6655 8.792 22.0495 8.56 22.3775 8.256C22.7055 7.952 22.9695 7.584 23.1695 7.152C23.3695 6.72 23.4935 6.236 23.5415 5.7H21.7175C21.6455 6.276 21.4455 6.74 21.1175 7.092C20.7975 7.444 20.3495 7.62 19.7735 7.62C19.3495 7.62 18.9895 7.54 18.6935 7.38C18.3975 7.212 18.1575 6.992 17.9735 6.72C17.7895 6.448 17.6535 6.144 17.5655 5.808C17.4855 5.464 17.4455 5.112 17.4455 4.752C17.4455 4.376 17.4855 4.012 17.5655 3.66C17.6535 3.308 17.7895 2.996 17.9735 2.724C18.1575 2.444 18.3975 2.224 18.6935 2.064C18.9895 1.896 19.3495 1.812 19.7735 1.812C20.0055 1.812 20.2255 1.852 20.4335 1.932C20.6495 2.004 20.8415 2.108 21.0095 2.244C21.1775 2.38 21.3175 2.54 21.4295 2.724C21.5415 2.9 21.6135 3.096 21.6455 3.312Z" fill="white"/>
</svg>
