<svg width="353" height="59" viewBox="0 0 353 59" fill="none" xmlns="http://www.w3.org/2000/svg">
<path opacity="0.9" d="M6.78 26.04V12.54H10.14C11.3 12.54 12.27 12.71 13.05 13.05C13.85 13.37 14.49 13.84 14.97 14.46C15.45 15.08 15.79 15.83 15.99 16.71C16.21 17.57 16.32 18.54 16.32 19.62C16.32 20.8 16.17 21.8 15.87 22.62C15.57 23.44 15.17 24.11 14.67 24.63C14.17 25.13 13.6 25.49 12.96 25.71C12.32 25.93 11.66 26.04 10.98 26.04H6.78ZM2.07 8.58V30H11.31C12.95 30 14.37 29.73 15.57 29.19C16.79 28.63 17.8 27.87 18.6 26.91C19.42 25.95 20.03 24.81 20.43 23.49C20.83 22.17 21.03 20.73 21.03 19.17C21.03 17.39 20.78 15.84 20.28 14.52C19.8 13.2 19.12 12.1 18.24 11.22C17.38 10.34 16.35 9.68 15.15 9.24C13.97 8.8 12.69 8.58 11.31 8.58H2.07ZM23.6763 19.26C23.7363 18.26 23.9863 17.43 24.4263 16.77C24.8663 16.11 25.4263 15.58 26.1063 15.18C26.7863 14.78 27.5463 14.5 28.3863 14.34C29.2463 14.16 30.1063 14.07 30.9663 14.07C31.7463 14.07 32.5363 14.13 33.3363 14.25C34.1363 14.35 34.8663 14.56 35.5263 14.88C36.1863 15.2 36.7263 15.65 37.1463 16.23C37.5663 16.79 37.7763 17.54 37.7763 18.48V26.55C37.7763 27.25 37.8163 27.92 37.8963 28.56C37.9763 29.2 38.1163 29.68 38.3163 30H33.9963C33.9163 29.76 33.8463 29.52 33.7863 29.28C33.7463 29.02 33.7163 28.76 33.6963 28.5C33.0163 29.2 32.2163 29.69 31.2963 29.97C30.3763 30.25 29.4363 30.39 28.4763 30.39C27.7363 30.39 27.0463 30.3 26.4063 30.12C25.7663 29.94 25.2063 29.66 24.7263 29.28C24.2463 28.9 23.8663 28.42 23.5863 27.84C23.3263 27.26 23.1963 26.57 23.1963 25.77C23.1963 24.89 23.3463 24.17 23.6463 23.61C23.9663 23.03 24.3663 22.57 24.8463 22.23C25.3463 21.89 25.9063 21.64 26.5263 21.48C27.1663 21.3 27.8063 21.16 28.4463 21.06C29.0863 20.96 29.7163 20.88 30.3363 20.82C30.9563 20.76 31.5063 20.67 31.9863 20.55C32.4663 20.43 32.8463 20.26 33.1263 20.04C33.4063 19.8 33.5363 19.46 33.5163 19.02C33.5163 18.56 33.4363 18.2 33.2763 17.94C33.1363 17.66 32.9363 17.45 32.6763 17.31C32.4363 17.15 32.1463 17.05 31.8063 17.01C31.4863 16.95 31.1363 16.92 30.7563 16.92C29.9163 16.92 29.2563 17.1 28.7763 17.46C28.2963 17.82 28.0163 18.42 27.9363 19.26H23.6763ZM33.5163 22.41C33.3363 22.57 33.1063 22.7 32.8263 22.8C32.5663 22.88 32.2763 22.95 31.9563 23.01C31.6563 23.07 31.3363 23.12 30.9963 23.16C30.6563 23.2 30.3163 23.25 29.9763 23.31C29.6563 23.37 29.3363 23.45 29.0163 23.55C28.7163 23.65 28.4463 23.79 28.2063 23.97C27.9863 24.13 27.8063 24.34 27.6663 24.6C27.5263 24.86 27.4563 25.19 27.4563 25.59C27.4563 25.97 27.5263 26.29 27.6663 26.55C27.8063 26.81 27.9963 27.02 28.2363 27.18C28.4763 27.32 28.7563 27.42 29.0763 27.48C29.3963 27.54 29.7263 27.57 30.0663 27.57C30.9063 27.57 31.5563 27.43 32.0163 27.15C32.4763 26.87 32.8163 26.54 33.0363 26.16C33.2563 25.76 33.3863 25.36 33.4263 24.96C33.4863 24.56 33.5163 24.24 33.5163 24V22.41ZM44.3829 24.96H40.3329C40.3729 26 40.6029 26.87 41.0229 27.57C41.4629 28.25 42.0129 28.8 42.6729 29.22C43.3529 29.64 44.1229 29.94 44.9829 30.12C45.8429 30.3 46.7229 30.39 47.6229 30.39C48.5029 30.39 49.3629 30.3 50.2029 30.12C51.0629 29.96 51.8229 29.67 52.4829 29.25C53.1429 28.83 53.6729 28.28 54.0729 27.6C54.4929 26.9 54.7029 26.04 54.7029 25.02C54.7029 24.3 54.5629 23.7 54.2829 23.22C54.0029 22.72 53.6329 22.31 53.1729 21.99C52.7129 21.65 52.1829 21.38 51.5829 21.18C51.0029 20.98 50.4029 20.81 49.7829 20.67C49.1829 20.53 48.5929 20.4 48.0129 20.28C47.4329 20.16 46.9129 20.03 46.4529 19.89C46.0129 19.73 45.6529 19.53 45.3729 19.29C45.0929 19.05 44.9529 18.74 44.9529 18.36C44.9529 18.04 45.0329 17.79 45.1929 17.61C45.3529 17.41 45.5429 17.26 45.7629 17.16C46.0029 17.06 46.2629 17 46.5429 16.98C46.8229 16.94 47.0829 16.92 47.3229 16.92C48.0829 16.92 48.7429 17.07 49.3029 17.37C49.8629 17.65 50.1729 18.2 50.2329 19.02H54.2829C54.2029 18.06 53.9529 17.27 53.5329 16.65C53.1329 16.01 52.6229 15.5 52.0029 15.12C51.3829 14.74 50.6729 14.47 49.8729 14.31C49.0929 14.15 48.2829 14.07 47.4429 14.07C46.6029 14.07 45.7829 14.15 44.9829 14.31C44.1829 14.45 43.4629 14.71 42.8229 15.09C42.1829 15.45 41.6629 15.95 41.2629 16.59C40.8829 17.23 40.6929 18.05 40.6929 19.05C40.6929 19.73 40.8329 20.31 41.1129 20.79C41.3929 21.25 41.7629 21.64 42.2229 21.96C42.6829 22.26 43.2029 22.51 43.7829 22.71C44.3829 22.89 44.9929 23.05 45.6129 23.19C47.1329 23.51 48.3129 23.83 49.1529 24.15C50.0129 24.47 50.4429 24.95 50.4429 25.59C50.4429 25.97 50.3529 26.29 50.1729 26.55C49.9929 26.79 49.7629 26.99 49.4829 27.15C49.2229 27.29 48.9229 27.4 48.5829 27.48C48.2629 27.54 47.9529 27.57 47.6529 27.57C47.2329 27.57 46.8229 27.52 46.4229 27.42C46.0429 27.32 45.7029 27.17 45.4029 26.97C45.1029 26.75 44.8529 26.48 44.6529 26.16C44.4729 25.82 44.3829 25.42 44.3829 24.96ZM57.1962 8.58V30H61.4562V21.87C61.4562 20.29 61.7162 19.16 62.2362 18.48C62.7562 17.78 63.5962 17.43 64.7562 17.43C65.7762 17.43 66.4862 17.75 66.8862 18.39C67.2862 19.01 67.4862 19.96 67.4862 21.24V30H71.7462V20.46C71.7462 19.5 71.6562 18.63 71.4762 17.85C71.3162 17.05 71.0262 16.38 70.6062 15.84C70.1862 15.28 69.6062 14.85 68.8662 14.55C68.1462 14.23 67.2162 14.07 66.0762 14.07C65.2762 14.07 64.4562 14.28 63.6162 14.7C62.7762 15.1 62.0862 15.75 61.5462 16.65H61.4562V8.58H57.1962ZM86.3494 22.26C86.3494 22.9 86.2794 23.52 86.1394 24.12C85.9994 24.72 85.7794 25.25 85.4794 25.71C85.1794 26.17 84.7994 26.54 84.3394 26.82C83.8994 27.08 83.3594 27.21 82.7194 27.21C82.0994 27.21 81.5594 27.08 81.0994 26.82C80.6394 26.54 80.2594 26.17 79.9594 25.71C79.6594 25.25 79.4394 24.72 79.2994 24.12C79.1594 23.52 79.0894 22.9 79.0894 22.26C79.0894 21.6 79.1594 20.97 79.2994 20.37C79.4394 19.77 79.6594 19.24 79.9594 18.78C80.2594 18.32 80.6394 17.96 81.0994 17.7C81.5594 17.42 82.0994 17.28 82.7194 17.28C83.3594 17.28 83.8994 17.42 84.3394 17.7C84.7994 17.96 85.1794 18.32 85.4794 18.78C85.7794 19.24 85.9994 19.77 86.1394 20.37C86.2794 20.97 86.3494 21.6 86.3494 22.26ZM74.9794 8.58V30H79.0294V28.02H79.0894C79.5494 28.88 80.2294 29.49 81.1294 29.85C82.0294 30.21 83.0494 30.39 84.1894 30.39C84.9694 30.39 85.7394 30.23 86.4994 29.91C87.2594 29.59 87.9394 29.1 88.5394 28.44C89.1594 27.78 89.6594 26.94 90.0394 25.92C90.4194 24.88 90.6094 23.65 90.6094 22.23C90.6094 20.81 90.4194 19.59 90.0394 18.57C89.6594 17.53 89.1594 16.68 88.5394 16.02C87.9394 15.36 87.2594 14.87 86.4994 14.55C85.7394 14.23 84.9694 14.07 84.1894 14.07C83.2294 14.07 82.2994 14.26 81.3994 14.64C80.5194 15 79.8194 15.58 79.2994 16.38H79.2394V8.58H74.9794ZM97.0992 22.26C97.0992 21.64 97.1592 21.03 97.2792 20.43C97.3992 19.83 97.5992 19.3 97.8792 18.84C98.1792 18.38 98.5692 18.01 99.0492 17.73C99.5292 17.43 100.129 17.28 100.849 17.28C101.569 17.28 102.169 17.43 102.649 17.73C103.149 18.01 103.539 18.38 103.819 18.84C104.119 19.3 104.329 19.83 104.449 20.43C104.569 21.03 104.629 21.64 104.629 22.26C104.629 22.88 104.569 23.49 104.449 24.09C104.329 24.67 104.119 25.2 103.819 25.68C103.539 26.14 103.149 26.51 102.649 26.79C102.169 27.07 101.569 27.21 100.849 27.21C100.129 27.21 99.5292 27.07 99.0492 26.79C98.5692 26.51 98.1792 26.14 97.8792 25.68C97.5992 25.2 97.3992 24.67 97.2792 24.09C97.1592 23.49 97.0992 22.88 97.0992 22.26ZM92.8392 22.26C92.8392 23.5 93.0292 24.62 93.4092 25.62C93.7892 26.62 94.3292 27.48 95.0292 28.2C95.7292 28.9 96.5692 29.44 97.5492 29.82C98.5292 30.2 99.6292 30.39 100.849 30.39C102.069 30.39 103.169 30.2 104.149 29.82C105.149 29.44 105.999 28.9 106.699 28.2C107.399 27.48 107.939 26.62 108.319 25.62C108.699 24.62 108.889 23.5 108.889 22.26C108.889 21.02 108.699 19.9 108.319 18.9C107.939 17.88 107.399 17.02 106.699 16.32C105.999 15.6 105.149 15.05 104.149 14.67C103.169 14.27 102.069 14.07 100.849 14.07C99.6292 14.07 98.5292 14.27 97.5492 14.67C96.5692 15.05 95.7292 15.6 95.0292 16.32C94.3292 17.02 93.7892 17.88 93.4092 18.9C93.0292 19.9 92.8392 21.02 92.8392 22.26ZM111.479 19.26C111.539 18.26 111.789 17.43 112.229 16.77C112.669 16.11 113.229 15.58 113.909 15.18C114.589 14.78 115.349 14.5 116.189 14.34C117.049 14.16 117.909 14.07 118.769 14.07C119.549 14.07 120.339 14.13 121.139 14.25C121.939 14.35 122.669 14.56 123.329 14.88C123.989 15.2 124.529 15.65 124.949 16.23C125.369 16.79 125.579 17.54 125.579 18.48V26.55C125.579 27.25 125.619 27.92 125.699 28.56C125.779 29.2 125.919 29.68 126.119 30H121.799C121.719 29.76 121.649 29.52 121.589 29.28C121.549 29.02 121.519 28.76 121.499 28.5C120.819 29.2 120.019 29.69 119.099 29.97C118.179 30.25 117.239 30.39 116.279 30.39C115.539 30.39 114.849 30.3 114.209 30.12C113.569 29.94 113.009 29.66 112.529 29.28C112.049 28.9 111.669 28.42 111.389 27.84C111.129 27.26 110.999 26.57 110.999 25.77C110.999 24.89 111.149 24.17 111.449 23.61C111.769 23.03 112.169 22.57 112.649 22.23C113.149 21.89 113.709 21.64 114.329 21.48C114.969 21.3 115.609 21.16 116.249 21.06C116.889 20.96 117.519 20.88 118.139 20.82C118.759 20.76 119.309 20.67 119.789 20.55C120.269 20.43 120.649 20.26 120.929 20.04C121.209 19.8 121.339 19.46 121.319 19.02C121.319 18.56 121.239 18.2 121.079 17.94C120.939 17.66 120.739 17.45 120.479 17.31C120.239 17.15 119.949 17.05 119.609 17.01C119.289 16.95 118.939 16.92 118.559 16.92C117.719 16.92 117.059 17.1 116.579 17.46C116.099 17.82 115.819 18.42 115.739 19.26H111.479ZM121.319 22.41C121.139 22.57 120.909 22.7 120.629 22.8C120.369 22.88 120.079 22.95 119.759 23.01C119.459 23.07 119.139 23.12 118.799 23.16C118.459 23.2 118.119 23.25 117.779 23.31C117.459 23.37 117.139 23.45 116.819 23.55C116.519 23.65 116.249 23.79 116.009 23.97C115.789 24.13 115.609 24.34 115.469 24.6C115.329 24.86 115.259 25.19 115.259 25.59C115.259 25.97 115.329 26.29 115.469 26.55C115.609 26.81 115.799 27.02 116.039 27.18C116.279 27.32 116.559 27.42 116.879 27.48C117.199 27.54 117.529 27.57 117.869 27.57C118.709 27.57 119.359 27.43 119.819 27.15C120.279 26.87 120.619 26.54 120.839 26.16C121.059 25.76 121.189 25.36 121.229 24.96C121.289 24.56 121.319 24.24 121.319 24V22.41ZM128.886 14.49V30H133.146V23.01C133.146 22.31 133.216 21.66 133.356 21.06C133.496 20.46 133.726 19.94 134.046 19.5C134.386 19.04 134.826 18.68 135.366 18.42C135.906 18.16 136.566 18.03 137.346 18.03C137.606 18.03 137.876 18.05 138.156 18.09C138.436 18.11 138.676 18.14 138.876 18.18V14.22C138.536 14.12 138.226 14.07 137.946 14.07C137.406 14.07 136.886 14.15 136.386 14.31C135.886 14.47 135.416 14.7 134.976 15C134.536 15.28 134.146 15.63 133.806 16.05C133.466 16.45 133.196 16.89 132.996 17.37H132.936V14.49H128.886ZM151.028 22.2C151.028 22.84 150.968 23.46 150.848 24.06C150.728 24.66 150.528 25.2 150.248 25.68C149.968 26.14 149.588 26.51 149.108 26.79C148.648 27.07 148.068 27.21 147.368 27.21C146.708 27.21 146.138 27.07 145.658 26.79C145.198 26.49 144.808 26.11 144.488 25.65C144.188 25.17 143.968 24.63 143.828 24.03C143.688 23.43 143.618 22.83 143.618 22.23C143.618 21.59 143.678 20.98 143.798 20.4C143.938 19.8 144.148 19.27 144.428 18.81C144.728 18.35 145.118 17.98 145.598 17.7C146.078 17.42 146.668 17.28 147.368 17.28C148.068 17.28 148.648 17.42 149.108 17.7C149.568 17.98 149.938 18.35 150.218 18.81C150.518 19.25 150.728 19.77 150.848 20.37C150.968 20.95 151.028 21.56 151.028 22.2ZM151.088 28.02V30H155.138V8.58H150.878V16.38H150.818C150.338 15.62 149.678 15.05 148.838 14.67C148.018 14.27 147.148 14.07 146.228 14.07C145.088 14.07 144.088 14.3 143.228 14.76C142.368 15.2 141.648 15.79 141.068 16.53C140.508 17.27 140.078 18.13 139.778 19.11C139.498 20.07 139.358 21.07 139.358 22.11C139.358 23.19 139.498 24.23 139.778 25.23C140.078 26.23 140.508 27.12 141.068 27.9C141.648 28.66 142.378 29.27 143.258 29.73C144.138 30.17 145.158 30.39 146.318 30.39C147.338 30.39 148.248 30.21 149.048 29.85C149.868 29.47 150.528 28.86 151.028 28.02H151.088Z" fill="#4C4C66"/>
<path opacity="0.7" d="M11.399 56L13.882 46.718H12.647L10.762 54.44H10.736L8.682 46.718H7.343L5.263 54.44H5.237L3.417 46.718H2.156L4.535 56H5.822L7.967 48.2H7.993L10.112 56H11.399ZM16.0372 48.07V46.718H14.9322V48.07H16.0372ZM14.9322 49.279V56H16.0372V49.279H14.9322ZM19.283 49.279V47.264H18.178V49.279H17.034V50.254H18.178V54.531C18.178 54.843 18.2083 55.0943 18.269 55.285C18.3297 55.4757 18.4207 55.623 18.542 55.727C18.672 55.831 18.8367 55.9047 19.036 55.948C19.244 55.9827 19.491 56 19.777 56H20.622V55.025H20.115C19.9417 55.025 19.7987 55.0207 19.686 55.012C19.582 54.9947 19.4997 54.9643 19.439 54.921C19.3783 54.8777 19.335 54.817 19.309 54.739C19.2917 54.661 19.283 54.557 19.283 54.427V50.254H20.622V49.279H19.283ZM21.8496 46.718V56H22.9546V52.204C22.9546 51.9007 22.9936 51.6233 23.0716 51.372C23.1582 51.112 23.2839 50.8867 23.4486 50.696C23.6132 50.5053 23.8169 50.358 24.0596 50.254C24.3109 50.15 24.6056 50.098 24.9436 50.098C25.3682 50.098 25.7019 50.2193 25.9446 50.462C26.1872 50.7047 26.3086 51.034 26.3086 51.45V56H27.4136V51.58C27.4136 51.216 27.3746 50.8867 27.2966 50.592C27.2272 50.2887 27.1016 50.0287 26.9196 49.812C26.7376 49.5953 26.4992 49.4263 26.2046 49.305C25.9099 49.1837 25.5416 49.123 25.0996 49.123C24.9002 49.123 24.6922 49.1447 24.4756 49.188C24.2676 49.2313 24.0639 49.3007 23.8646 49.396C23.6739 49.4827 23.5006 49.5997 23.3446 49.747C23.1886 49.8857 23.0672 50.059 22.9806 50.267H22.9546V46.718H21.8496ZM38.6454 55.974C38.4547 56.0867 38.1904 56.143 37.8524 56.143C37.5664 56.143 37.3367 56.065 37.1634 55.909C36.9987 55.7443 36.9164 55.48 36.9164 55.116C36.613 55.48 36.2577 55.7443 35.8504 55.909C35.4517 56.065 35.0184 56.143 34.5504 56.143C34.247 56.143 33.9567 56.1083 33.6794 56.039C33.4107 55.9697 33.1767 55.8613 32.9774 55.714C32.778 55.5667 32.6177 55.376 32.4964 55.142C32.3837 54.8993 32.3274 54.609 32.3274 54.271C32.3274 53.8897 32.3924 53.5777 32.5224 53.335C32.6524 53.0923 32.8214 52.8973 33.0294 52.75C33.246 52.594 33.4887 52.477 33.7574 52.399C34.0347 52.321 34.3164 52.256 34.6024 52.204C34.9057 52.1433 35.1917 52.1 35.4604 52.074C35.7377 52.0393 35.9804 51.996 36.1884 51.944C36.3964 51.8833 36.561 51.801 36.6824 51.697C36.8037 51.5843 36.8644 51.424 36.8644 51.216C36.8644 50.9733 36.8167 50.7783 36.7214 50.631C36.6347 50.4837 36.5177 50.371 36.3704 50.293C36.2317 50.215 36.0714 50.163 35.8894 50.137C35.716 50.111 35.5427 50.098 35.3694 50.098C34.9014 50.098 34.5114 50.189 34.1994 50.371C33.8874 50.5443 33.7184 50.878 33.6924 51.372H32.5874C32.6047 50.956 32.6914 50.605 32.8474 50.319C33.0034 50.033 33.2114 49.8033 33.4714 49.63C33.7314 49.448 34.026 49.318 34.3554 49.24C34.6934 49.162 35.053 49.123 35.4344 49.123C35.7377 49.123 36.0367 49.1447 36.3314 49.188C36.6347 49.2313 36.9077 49.3223 37.1504 49.461C37.393 49.591 37.588 49.7773 37.7354 50.02C37.8827 50.2627 37.9564 50.579 37.9564 50.969V54.427C37.9564 54.687 37.9694 54.8777 37.9954 54.999C38.03 55.1203 38.134 55.181 38.3074 55.181C38.4027 55.181 38.5154 55.1593 38.6454 55.116V55.974ZM36.8514 52.529C36.7127 52.633 36.5307 52.711 36.3054 52.763C36.08 52.8063 35.8417 52.8453 35.5904 52.88C35.3477 52.906 35.1007 52.9407 34.8494 52.984C34.598 53.0187 34.3727 53.0793 34.1734 53.166C33.974 53.2527 33.8094 53.3783 33.6794 53.543C33.558 53.699 33.4974 53.9157 33.4974 54.193C33.4974 54.375 33.532 54.531 33.6014 54.661C33.6794 54.7823 33.7747 54.882 33.8874 54.96C34.0087 55.038 34.1474 55.0943 34.3034 55.129C34.4594 55.1637 34.624 55.181 34.7974 55.181C35.1614 55.181 35.4734 55.1333 35.7334 55.038C35.9934 54.934 36.2057 54.8083 36.3704 54.661C36.535 54.505 36.6564 54.3403 36.7344 54.167C36.8124 53.985 36.8514 53.816 36.8514 53.66V52.529ZM39.7388 46.718V56H40.8438V46.718H39.7388ZM42.6206 46.718V56H43.7256V46.718H42.6206ZM49.8616 52.646C49.8616 52.2387 49.9136 51.879 50.0176 51.567C50.1303 51.2463 50.282 50.9777 50.4726 50.761C50.6633 50.5443 50.8843 50.3797 51.1356 50.267C51.3956 50.1543 51.6686 50.098 51.9546 50.098C52.2406 50.098 52.5093 50.1543 52.7606 50.267C53.0206 50.3797 53.246 50.5443 53.4366 50.761C53.6273 50.9777 53.7746 51.2463 53.8786 51.567C53.9913 51.879 54.0476 52.2387 54.0476 52.646C54.0476 53.0533 53.9913 53.4173 53.8786 53.738C53.7746 54.05 53.6273 54.3143 53.4366 54.531C53.246 54.739 53.0206 54.8993 52.7606 55.012C52.5093 55.1247 52.2406 55.181 51.9546 55.181C51.6686 55.181 51.3956 55.1247 51.1356 55.012C50.8843 54.8993 50.6633 54.739 50.4726 54.531C50.282 54.3143 50.1303 54.05 50.0176 53.738C49.9136 53.4173 49.8616 53.0533 49.8616 52.646ZM48.6916 52.646C48.6916 53.14 48.761 53.5993 48.8996 54.024C49.0383 54.4487 49.2463 54.8213 49.5236 55.142C49.801 55.454 50.1433 55.701 50.5506 55.883C50.958 56.0563 51.426 56.143 51.9546 56.143C52.492 56.143 52.96 56.0563 53.3586 55.883C53.766 55.701 54.1083 55.454 54.3856 55.142C54.663 54.8213 54.871 54.4487 55.0096 54.024C55.1483 53.5993 55.2176 53.14 55.2176 52.646C55.2176 52.152 55.1483 51.6927 55.0096 51.268C54.871 50.8347 54.663 50.462 54.3856 50.15C54.1083 49.8293 53.766 49.578 53.3586 49.396C52.96 49.214 52.492 49.123 51.9546 49.123C51.426 49.123 50.958 49.214 50.5506 49.396C50.1433 49.578 49.801 49.8293 49.5236 50.15C49.2463 50.462 49.0383 50.8347 48.8996 51.268C48.761 51.6927 48.6916 52.152 48.6916 52.646ZM56.9755 50.254V56H58.0805V50.254H59.3805V49.279H58.0805V48.343C58.0805 48.0483 58.1541 47.849 58.3015 47.745C58.4488 47.641 58.6568 47.589 58.9255 47.589C59.0208 47.589 59.1248 47.5977 59.2375 47.615C59.3501 47.6237 59.4541 47.6453 59.5495 47.68V46.718C59.4455 46.6833 59.3241 46.6573 59.1855 46.64C59.0555 46.6227 58.9385 46.614 58.8345 46.614C58.2278 46.614 57.7641 46.757 57.4435 47.043C57.1315 47.3203 56.9755 47.732 56.9755 48.278V49.279H55.8445V50.254H56.9755ZM65.5193 49.279V47.264H64.4143V49.279H63.2703V50.254H64.4143V54.531C64.4143 54.843 64.4447 55.0943 64.5053 55.285C64.566 55.4757 64.657 55.623 64.7783 55.727C64.9083 55.831 65.073 55.9047 65.2723 55.948C65.4803 55.9827 65.7273 56 66.0133 56H66.8583V55.025H66.3513C66.178 55.025 66.035 55.0207 65.9223 55.012C65.8183 54.9947 65.736 54.9643 65.6753 54.921C65.6147 54.8777 65.5713 54.817 65.5453 54.739C65.528 54.661 65.5193 54.557 65.5193 54.427V50.254H66.8583V49.279H65.5193ZM68.0859 46.718V56H69.1909V52.204C69.1909 51.9007 69.2299 51.6233 69.3079 51.372C69.3946 51.112 69.5202 50.8867 69.6849 50.696C69.8496 50.5053 70.0532 50.358 70.2959 50.254C70.5472 50.15 70.8419 50.098 71.1799 50.098C71.6046 50.098 71.9382 50.2193 72.1809 50.462C72.4236 50.7047 72.5449 51.034 72.5449 51.45V56H73.6499V51.58C73.6499 51.216 73.6109 50.8867 73.5329 50.592C73.4636 50.2887 73.3379 50.0287 73.1559 49.812C72.9739 49.5953 72.7356 49.4263 72.4409 49.305C72.1462 49.1837 71.7779 49.123 71.3359 49.123C71.1366 49.123 70.9286 49.1447 70.7119 49.188C70.5039 49.2313 70.3002 49.3007 70.1009 49.396C69.9102 49.4827 69.7369 49.5997 69.5809 49.747C69.4249 49.8857 69.3036 50.059 69.2169 50.267H69.1909V46.718H68.0859ZM79.9765 51.996H76.1155C76.1329 51.736 76.1892 51.4933 76.2845 51.268C76.3799 51.034 76.5099 50.8303 76.6745 50.657C76.8392 50.4837 77.0342 50.3493 77.2595 50.254C77.4935 50.15 77.7535 50.098 78.0395 50.098C78.3169 50.098 78.5682 50.15 78.7935 50.254C79.0275 50.3493 79.2269 50.4837 79.3915 50.657C79.5649 50.8217 79.6992 51.021 79.7945 51.255C79.8985 51.489 79.9592 51.736 79.9765 51.996ZM81.0425 53.868H79.9505C79.8552 54.31 79.6559 54.6393 79.3525 54.856C79.0579 55.0727 78.6765 55.181 78.2085 55.181C77.8445 55.181 77.5282 55.1203 77.2595 54.999C76.9909 54.8777 76.7699 54.7173 76.5965 54.518C76.4232 54.31 76.2975 54.076 76.2195 53.816C76.1415 53.5473 76.1069 53.2657 76.1155 52.971H81.1465C81.1639 52.5637 81.1249 52.1347 81.0295 51.684C80.9429 51.2333 80.7782 50.8173 80.5355 50.436C80.3015 50.0547 79.9852 49.7427 79.5865 49.5C79.1965 49.2487 78.7025 49.123 78.1045 49.123C77.6452 49.123 77.2205 49.2097 76.8305 49.383C76.4492 49.5563 76.1155 49.799 75.8295 50.111C75.5522 50.423 75.3355 50.7913 75.1795 51.216C75.0235 51.6407 74.9455 52.1087 74.9455 52.62C74.9629 53.1313 75.0365 53.6037 75.1665 54.037C75.3052 54.4703 75.5089 54.843 75.7775 55.155C76.0462 55.467 76.3755 55.7097 76.7655 55.883C77.1642 56.0563 77.6322 56.143 78.1695 56.143C78.9322 56.143 79.5649 55.9523 80.0675 55.571C80.5702 55.1897 80.8952 54.622 81.0425 53.868ZM86.5861 53.881H85.4811C85.4985 54.297 85.5851 54.6523 85.7411 54.947C85.8971 55.233 86.1051 55.467 86.3651 55.649C86.6251 55.8223 86.9241 55.948 87.2621 56.026C87.6001 56.104 87.9555 56.143 88.3281 56.143C88.6661 56.143 89.0041 56.1083 89.3421 56.039C89.6888 55.9783 89.9965 55.8657 90.2651 55.701C90.5425 55.5363 90.7635 55.3197 90.9281 55.051C91.1015 54.7823 91.1881 54.4443 91.1881 54.037C91.1881 53.7163 91.1231 53.4477 90.9931 53.231C90.8718 53.0143 90.7071 52.8367 90.4991 52.698C90.2998 52.5507 90.0658 52.4337 89.7971 52.347C89.5371 52.2603 89.2685 52.1867 88.9911 52.126C88.7311 52.0653 88.4711 52.009 88.2111 51.957C87.9511 51.8963 87.7171 51.827 87.5091 51.749C87.3011 51.6623 87.1278 51.5583 86.9891 51.437C86.8591 51.307 86.7941 51.1467 86.7941 50.956C86.7941 50.7827 86.8375 50.644 86.9241 50.54C87.0108 50.4273 87.1235 50.3407 87.2621 50.28C87.4008 50.2107 87.5525 50.163 87.7171 50.137C87.8905 50.111 88.0595 50.098 88.2241 50.098C88.4061 50.098 88.5838 50.1197 88.7571 50.163C88.9391 50.1977 89.1038 50.2583 89.2511 50.345C89.3985 50.4317 89.5198 50.5487 89.6151 50.696C89.7105 50.8347 89.7668 51.0123 89.7841 51.229H90.8891C90.8631 50.8217 90.7765 50.4837 90.6291 50.215C90.4818 49.9377 90.2825 49.721 90.0311 49.565C89.7885 49.4003 89.5068 49.2877 89.1861 49.227C88.8655 49.1577 88.5145 49.123 88.1331 49.123C87.8385 49.123 87.5395 49.162 87.2361 49.24C86.9415 49.3093 86.6728 49.422 86.4301 49.578C86.1961 49.7253 86.0011 49.9203 85.8451 50.163C85.6978 50.4057 85.6241 50.696 85.6241 51.034C85.6241 51.4673 85.7325 51.8053 85.9491 52.048C86.1658 52.2907 86.4345 52.4813 86.7551 52.62C87.0845 52.75 87.4398 52.854 87.8211 52.932C88.2025 53.0013 88.5535 53.0837 88.8741 53.179C89.2035 53.2657 89.4765 53.3827 89.6931 53.53C89.9098 53.6773 90.0181 53.894 90.0181 54.18C90.0181 54.388 89.9661 54.5613 89.8621 54.7C89.7581 54.83 89.6238 54.9297 89.4591 54.999C89.3031 55.0683 89.1298 55.116 88.9391 55.142C88.7485 55.168 88.5665 55.181 88.3931 55.181C88.1678 55.181 87.9468 55.1593 87.7301 55.116C87.5221 55.0727 87.3315 55.0033 87.1581 54.908C86.9935 54.804 86.8591 54.6697 86.7551 54.505C86.6511 54.3317 86.5948 54.1237 86.5861 53.881ZM93.9441 49.279V47.264H92.8391V49.279H91.6951V50.254H92.8391V54.531C92.8391 54.843 92.8695 55.0943 92.9301 55.285C92.9908 55.4757 93.0818 55.623 93.2031 55.727C93.3331 55.831 93.4978 55.9047 93.6971 55.948C93.9051 55.9827 94.1521 56 94.4381 56H95.2831V55.025H94.7761C94.6028 55.025 94.4598 55.0207 94.3471 55.012C94.2431 54.9947 94.1608 54.9643 94.1001 54.921C94.0395 54.8777 93.9961 54.817 93.9701 54.739C93.9528 54.661 93.9441 54.557 93.9441 54.427V50.254H95.2831V49.279H93.9441ZM99.1497 56.897C99.0197 57.2263 98.8897 57.5037 98.7597 57.729C98.6384 57.9543 98.4997 58.1363 98.3437 58.275C98.1964 58.4223 98.0274 58.5263 97.8367 58.587C97.6547 58.6563 97.4424 58.691 97.1997 58.691C97.0697 58.691 96.9397 58.6823 96.8097 58.665C96.6797 58.6477 96.554 58.6173 96.4327 58.574V57.56C96.528 57.6033 96.6364 57.638 96.7577 57.664C96.8877 57.6987 96.996 57.716 97.0827 57.716C97.308 57.716 97.4944 57.6597 97.6417 57.547C97.7977 57.443 97.9147 57.2913 97.9927 57.092L98.4477 55.961L95.7827 49.279H97.0307L98.9937 54.778H99.0197L100.905 49.279H102.075L99.1497 56.897ZM103.076 46.718V56H104.181V46.718H103.076ZM107.063 48.07V46.718H105.958V48.07H107.063ZM105.958 49.279V56H107.063V49.279H105.958ZM108.774 49.279V56H109.879V52.204C109.879 51.9007 109.918 51.6233 109.996 51.372C110.083 51.112 110.209 50.8867 110.373 50.696C110.538 50.5053 110.742 50.358 110.984 50.254C111.236 50.15 111.53 50.098 111.868 50.098C112.293 50.098 112.627 50.2193 112.869 50.462C113.112 50.7047 113.233 51.034 113.233 51.45V56H114.338V51.58C114.338 51.216 114.299 50.8867 114.221 50.592C114.152 50.2887 114.026 50.0287 113.844 49.812C113.662 49.5953 113.424 49.4263 113.129 49.305C112.835 49.1837 112.466 49.123 112.024 49.123C111.028 49.123 110.3 49.5303 109.84 50.345H109.814V49.279H108.774ZM121.796 55.428V49.279H120.756V50.241H120.743C120.544 49.8683 120.266 49.591 119.911 49.409C119.556 49.2183 119.166 49.123 118.741 49.123C118.16 49.123 117.671 49.2357 117.272 49.461C116.873 49.6777 116.553 49.9593 116.31 50.306C116.067 50.644 115.894 51.0253 115.79 51.45C115.686 51.866 115.634 52.2733 115.634 52.672C115.634 53.1313 115.695 53.569 115.816 53.985C115.946 54.3923 116.137 54.752 116.388 55.064C116.639 55.3673 116.951 55.61 117.324 55.792C117.697 55.974 118.134 56.065 118.637 56.065C119.07 56.065 119.478 55.9697 119.859 55.779C120.249 55.5797 120.539 55.272 120.73 54.856H120.756V55.298C120.756 55.6707 120.717 56.013 120.639 56.325C120.57 56.637 120.453 56.9013 120.288 57.118C120.123 57.3433 119.915 57.5167 119.664 57.638C119.413 57.768 119.105 57.833 118.741 57.833C118.559 57.833 118.368 57.8113 118.169 57.768C117.97 57.7333 117.783 57.6727 117.61 57.586C117.445 57.4993 117.302 57.3867 117.181 57.248C117.068 57.1093 117.008 56.9403 116.999 56.741H115.894C115.911 57.105 116.007 57.4127 116.18 57.664C116.353 57.9153 116.57 58.119 116.83 58.275C117.099 58.431 117.393 58.5437 117.714 58.613C118.043 58.6823 118.364 58.717 118.676 58.717C119.751 58.717 120.539 58.444 121.042 57.898C121.545 57.352 121.796 56.5287 121.796 55.428ZM118.702 55.103C118.338 55.103 118.035 55.0293 117.792 54.882C117.549 54.726 117.354 54.5267 117.207 54.284C117.06 54.0327 116.956 53.7553 116.895 53.452C116.834 53.1487 116.804 52.8453 116.804 52.542C116.804 52.2213 116.839 51.9137 116.908 51.619C116.986 51.3243 117.103 51.0643 117.259 50.839C117.424 50.6137 117.632 50.436 117.883 50.306C118.134 50.1673 118.438 50.098 118.793 50.098C119.14 50.098 119.434 50.1673 119.677 50.306C119.92 50.4447 120.115 50.631 120.262 50.865C120.418 51.0903 120.531 51.346 120.6 51.632C120.669 51.918 120.704 52.2083 120.704 52.503C120.704 52.815 120.665 53.127 120.587 53.439C120.518 53.751 120.405 54.0327 120.249 54.284C120.093 54.5267 119.885 54.726 119.625 54.882C119.374 55.0293 119.066 55.103 118.702 55.103ZM128.615 49.279V47.264H127.51V49.279H126.366V50.254H127.51V54.531C127.51 54.843 127.54 55.0943 127.601 55.285C127.662 55.4757 127.753 55.623 127.874 55.727C128.004 55.831 128.169 55.9047 128.368 55.948C128.576 55.9827 128.823 56 129.109 56H129.954V55.025H129.447C129.274 55.025 129.131 55.0207 129.018 55.012C128.914 54.9947 128.832 54.9643 128.771 54.921C128.71 54.8777 128.667 54.817 128.641 54.739C128.624 54.661 128.615 54.557 128.615 54.427V50.254H129.954V49.279H128.615ZM131.988 52.646C131.988 52.2387 132.04 51.879 132.144 51.567C132.256 51.2463 132.408 50.9777 132.599 50.761C132.789 50.5443 133.01 50.3797 133.262 50.267C133.522 50.1543 133.795 50.098 134.081 50.098C134.367 50.098 134.635 50.1543 134.887 50.267C135.147 50.3797 135.372 50.5443 135.563 50.761C135.753 50.9777 135.901 51.2463 136.005 51.567C136.117 51.879 136.174 52.2387 136.174 52.646C136.174 53.0533 136.117 53.4173 136.005 53.738C135.901 54.05 135.753 54.3143 135.563 54.531C135.372 54.739 135.147 54.8993 134.887 55.012C134.635 55.1247 134.367 55.181 134.081 55.181C133.795 55.181 133.522 55.1247 133.262 55.012C133.01 54.8993 132.789 54.739 132.599 54.531C132.408 54.3143 132.256 54.05 132.144 53.738C132.04 53.4173 131.988 53.0533 131.988 52.646ZM130.818 52.646C130.818 53.14 130.887 53.5993 131.026 54.024C131.164 54.4487 131.372 54.8213 131.65 55.142C131.927 55.454 132.269 55.701 132.677 55.883C133.084 56.0563 133.552 56.143 134.081 56.143C134.618 56.143 135.086 56.0563 135.485 55.883C135.892 55.701 136.234 55.454 136.512 55.142C136.789 54.8213 136.997 54.4487 137.136 54.024C137.274 53.5993 137.344 53.14 137.344 52.646C137.344 52.152 137.274 51.6927 137.136 51.268C136.997 50.8347 136.789 50.462 136.512 50.15C136.234 49.8293 135.892 49.578 135.485 49.396C135.086 49.214 134.618 49.123 134.081 49.123C133.552 49.123 133.084 49.214 132.677 49.396C132.269 49.578 131.927 49.8293 131.65 50.15C131.372 50.462 131.164 50.8347 131.026 51.268C130.887 51.6927 130.818 52.152 130.818 52.646ZM139.452 52.646C139.452 52.2387 139.504 51.879 139.608 51.567C139.721 51.2463 139.873 50.9777 140.063 50.761C140.254 50.5443 140.475 50.3797 140.726 50.267C140.986 50.1543 141.259 50.098 141.545 50.098C141.831 50.098 142.1 50.1543 142.351 50.267C142.611 50.3797 142.837 50.5443 143.027 50.761C143.218 50.9777 143.365 51.2463 143.469 51.567C143.582 51.879 143.638 52.2387 143.638 52.646C143.638 53.0533 143.582 53.4173 143.469 53.738C143.365 54.05 143.218 54.3143 143.027 54.531C142.837 54.739 142.611 54.8993 142.351 55.012C142.1 55.1247 141.831 55.181 141.545 55.181C141.259 55.181 140.986 55.1247 140.726 55.012C140.475 54.8993 140.254 54.739 140.063 54.531C139.873 54.3143 139.721 54.05 139.608 53.738C139.504 53.4173 139.452 53.0533 139.452 52.646ZM138.282 52.646C138.282 53.14 138.352 53.5993 138.49 54.024C138.629 54.4487 138.837 54.8213 139.114 55.142C139.392 55.454 139.734 55.701 140.141 55.883C140.549 56.0563 141.017 56.143 141.545 56.143C142.083 56.143 142.551 56.0563 142.949 55.883C143.357 55.701 143.699 55.454 143.976 55.142C144.254 54.8213 144.462 54.4487 144.6 54.024C144.739 53.5993 144.808 53.14 144.808 52.646C144.808 52.152 144.739 51.6927 144.6 51.268C144.462 50.8347 144.254 50.462 143.976 50.15C143.699 49.8293 143.357 49.578 142.949 49.396C142.551 49.214 142.083 49.123 141.545 49.123C141.017 49.123 140.549 49.214 140.141 49.396C139.734 49.578 139.392 49.8293 139.114 50.15C138.837 50.462 138.629 50.8347 138.49 51.268C138.352 51.6927 138.282 52.152 138.282 52.646ZM146.176 46.718V56H147.281V46.718H146.176ZM153.417 52.646C153.417 52.2387 153.469 51.879 153.573 51.567C153.686 51.2463 153.838 50.9777 154.028 50.761C154.219 50.5443 154.44 50.3797 154.691 50.267C154.951 50.1543 155.224 50.098 155.51 50.098C155.796 50.098 156.065 50.1543 156.316 50.267C156.576 50.3797 156.802 50.5443 156.992 50.761C157.183 50.9777 157.33 51.2463 157.434 51.567C157.547 51.879 157.603 52.2387 157.603 52.646C157.603 53.0533 157.547 53.4173 157.434 53.738C157.33 54.05 157.183 54.3143 156.992 54.531C156.802 54.739 156.576 54.8993 156.316 55.012C156.065 55.1247 155.796 55.181 155.51 55.181C155.224 55.181 154.951 55.1247 154.691 55.012C154.44 54.8993 154.219 54.739 154.028 54.531C153.838 54.3143 153.686 54.05 153.573 53.738C153.469 53.4173 153.417 53.0533 153.417 52.646ZM152.247 52.646C152.247 53.14 152.317 53.5993 152.455 54.024C152.594 54.4487 152.802 54.8213 153.079 55.142C153.357 55.454 153.699 55.701 154.106 55.883C154.514 56.0563 154.982 56.143 155.51 56.143C156.048 56.143 156.516 56.0563 156.914 55.883C157.322 55.701 157.664 55.454 157.941 55.142C158.219 54.8213 158.427 54.4487 158.565 54.024C158.704 53.5993 158.773 53.14 158.773 52.646C158.773 52.152 158.704 51.6927 158.565 51.268C158.427 50.8347 158.219 50.462 157.941 50.15C157.664 49.8293 157.322 49.578 156.914 49.396C156.516 49.214 156.048 49.123 155.51 49.123C154.982 49.123 154.514 49.214 154.106 49.396C153.699 49.578 153.357 49.8293 153.079 50.15C152.802 50.462 152.594 50.8347 152.455 51.268C152.317 51.6927 152.247 52.152 152.247 52.646ZM160.115 49.279V58.561H161.22V55.103H161.246C161.367 55.3023 161.515 55.4713 161.688 55.61C161.87 55.74 162.061 55.844 162.26 55.922C162.459 56 162.659 56.0563 162.858 56.091C163.066 56.1257 163.252 56.143 163.417 56.143C163.928 56.143 164.375 56.052 164.756 55.87C165.146 55.688 165.467 55.441 165.718 55.129C165.978 54.8083 166.169 54.4357 166.29 54.011C166.42 53.5863 166.485 53.1357 166.485 52.659C166.485 52.1823 166.42 51.7317 166.29 51.307C166.16 50.8823 165.965 50.5097 165.705 50.189C165.454 49.8597 165.133 49.5997 164.743 49.409C164.362 49.2183 163.911 49.123 163.391 49.123C162.923 49.123 162.494 49.2097 162.104 49.383C161.714 49.5477 161.428 49.8163 161.246 50.189H161.22V49.279H160.115ZM165.315 52.581C165.315 52.9103 165.28 53.231 165.211 53.543C165.142 53.855 165.029 54.1323 164.873 54.375C164.717 54.6177 164.509 54.8127 164.249 54.96C163.998 55.1073 163.681 55.181 163.3 55.181C162.919 55.181 162.594 55.1117 162.325 54.973C162.056 54.8257 161.835 54.635 161.662 54.401C161.497 54.167 161.376 53.8983 161.298 53.595C161.22 53.283 161.181 52.9623 161.181 52.633C161.181 52.321 161.216 52.0133 161.285 51.71C161.363 51.4067 161.484 51.138 161.649 50.904C161.814 50.6613 162.026 50.4663 162.286 50.319C162.546 50.1717 162.862 50.098 163.235 50.098C163.59 50.098 163.898 50.1673 164.158 50.306C164.427 50.4447 164.643 50.631 164.808 50.865C164.981 51.099 165.107 51.3677 165.185 51.671C165.272 51.9657 165.315 52.269 165.315 52.581ZM169.316 49.279V47.264H168.211V49.279H167.067V50.254H168.211V54.531C168.211 54.843 168.242 55.0943 168.302 55.285C168.363 55.4757 168.454 55.623 168.575 55.727C168.705 55.831 168.87 55.9047 169.069 55.948C169.277 55.9827 169.524 56 169.81 56H170.655V55.025H170.148C169.975 55.025 169.832 55.0207 169.719 55.012C169.615 54.9947 169.533 54.9643 169.472 54.921C169.412 54.8777 169.368 54.817 169.342 54.739C169.325 54.661 169.316 54.557 169.316 54.427V50.254H170.655V49.279H169.316ZM173.053 48.07V46.718H171.948V48.07H173.053ZM171.948 49.279V56H173.053V49.279H171.948ZM175.571 52.646C175.571 52.2387 175.623 51.879 175.727 51.567C175.839 51.2463 175.991 50.9777 176.182 50.761C176.372 50.5443 176.593 50.3797 176.845 50.267C177.105 50.1543 177.378 50.098 177.664 50.098C177.95 50.098 178.218 50.1543 178.47 50.267C178.73 50.3797 178.955 50.5443 179.146 50.761C179.336 50.9777 179.484 51.2463 179.588 51.567C179.7 51.879 179.757 52.2387 179.757 52.646C179.757 53.0533 179.7 53.4173 179.588 53.738C179.484 54.05 179.336 54.3143 179.146 54.531C178.955 54.739 178.73 54.8993 178.47 55.012C178.218 55.1247 177.95 55.181 177.664 55.181C177.378 55.181 177.105 55.1247 176.845 55.012C176.593 54.8993 176.372 54.739 176.182 54.531C175.991 54.3143 175.839 54.05 175.727 53.738C175.623 53.4173 175.571 53.0533 175.571 52.646ZM174.401 52.646C174.401 53.14 174.47 53.5993 174.609 54.024C174.747 54.4487 174.955 54.8213 175.233 55.142C175.51 55.454 175.852 55.701 176.26 55.883C176.667 56.0563 177.135 56.143 177.664 56.143C178.201 56.143 178.669 56.0563 179.068 55.883C179.475 55.701 179.817 55.454 180.095 55.142C180.372 54.8213 180.58 54.4487 180.719 54.024C180.857 53.5993 180.927 53.14 180.927 52.646C180.927 52.152 180.857 51.6927 180.719 51.268C180.58 50.8347 180.372 50.462 180.095 50.15C179.817 49.8293 179.475 49.578 179.068 49.396C178.669 49.214 178.201 49.123 177.664 49.123C177.135 49.123 176.667 49.214 176.26 49.396C175.852 49.578 175.51 49.8293 175.233 50.15C174.955 50.462 174.747 50.8347 174.609 51.268C174.47 51.6927 174.401 52.152 174.401 52.646ZM182.229 49.279V56H183.334V52.204C183.334 51.9007 183.373 51.6233 183.451 51.372C183.538 51.112 183.664 50.8867 183.828 50.696C183.993 50.5053 184.197 50.358 184.439 50.254C184.691 50.15 184.985 50.098 185.323 50.098C185.748 50.098 186.082 50.2193 186.324 50.462C186.567 50.7047 186.688 51.034 186.688 51.45V56H187.793V51.58C187.793 51.216 187.754 50.8867 187.676 50.592C187.607 50.2887 187.481 50.0287 187.299 49.812C187.117 49.5953 186.879 49.4263 186.584 49.305C186.29 49.1837 185.921 49.123 185.479 49.123C184.483 49.123 183.755 49.5303 183.295 50.345H183.269V49.279H182.229ZM190.129 53.881H189.024C189.041 54.297 189.128 54.6523 189.284 54.947C189.44 55.233 189.648 55.467 189.908 55.649C190.168 55.8223 190.467 55.948 190.805 56.026C191.143 56.104 191.498 56.143 191.871 56.143C192.209 56.143 192.547 56.1083 192.885 56.039C193.232 55.9783 193.539 55.8657 193.808 55.701C194.085 55.5363 194.306 55.3197 194.471 55.051C194.644 54.7823 194.731 54.4443 194.731 54.037C194.731 53.7163 194.666 53.4477 194.536 53.231C194.415 53.0143 194.25 52.8367 194.042 52.698C193.843 52.5507 193.609 52.4337 193.34 52.347C193.08 52.2603 192.811 52.1867 192.534 52.126C192.274 52.0653 192.014 52.009 191.754 51.957C191.494 51.8963 191.26 51.827 191.052 51.749C190.844 51.6623 190.671 51.5583 190.532 51.437C190.402 51.307 190.337 51.1467 190.337 50.956C190.337 50.7827 190.38 50.644 190.467 50.54C190.554 50.4273 190.666 50.3407 190.805 50.28C190.944 50.2107 191.095 50.163 191.26 50.137C191.433 50.111 191.602 50.098 191.767 50.098C191.949 50.098 192.127 50.1197 192.3 50.163C192.482 50.1977 192.647 50.2583 192.794 50.345C192.941 50.4317 193.063 50.5487 193.158 50.696C193.253 50.8347 193.31 51.0123 193.327 51.229H194.432C194.406 50.8217 194.319 50.4837 194.172 50.215C194.025 49.9377 193.825 49.721 193.574 49.565C193.331 49.4003 193.05 49.2877 192.729 49.227C192.408 49.1577 192.057 49.123 191.676 49.123C191.381 49.123 191.082 49.162 190.779 49.24C190.484 49.3093 190.216 49.422 189.973 49.578C189.739 49.7253 189.544 49.9203 189.388 50.163C189.241 50.4057 189.167 50.696 189.167 51.034C189.167 51.4673 189.275 51.8053 189.492 52.048C189.709 52.2907 189.977 52.4813 190.298 52.62C190.627 52.75 190.983 52.854 191.364 52.932C191.745 53.0013 192.096 53.0837 192.417 53.179C192.746 53.2657 193.019 53.3827 193.236 53.53C193.453 53.6773 193.561 53.894 193.561 54.18C193.561 54.388 193.509 54.5613 193.405 54.7C193.301 54.83 193.167 54.9297 193.002 54.999C192.846 55.0683 192.673 55.116 192.482 55.142C192.291 55.168 192.109 55.181 191.936 55.181C191.711 55.181 191.49 55.1593 191.273 55.116C191.065 55.0727 190.874 55.0033 190.701 54.908C190.536 54.804 190.402 54.6697 190.298 54.505C190.194 54.3317 190.138 54.1237 190.129 53.881ZM205.525 55.974C205.335 56.0867 205.07 56.143 204.732 56.143C204.446 56.143 204.217 56.065 204.043 55.909C203.879 55.7443 203.796 55.48 203.796 55.116C203.493 55.48 203.138 55.7443 202.73 55.909C202.332 56.065 201.898 56.143 201.43 56.143C201.127 56.143 200.837 56.1083 200.559 56.039C200.291 55.9697 200.057 55.8613 199.857 55.714C199.658 55.5667 199.498 55.376 199.376 55.142C199.264 54.8993 199.207 54.609 199.207 54.271C199.207 53.8897 199.272 53.5777 199.402 53.335C199.532 53.0923 199.701 52.8973 199.909 52.75C200.126 52.594 200.369 52.477 200.637 52.399C200.915 52.321 201.196 52.256 201.482 52.204C201.786 52.1433 202.072 52.1 202.34 52.074C202.618 52.0393 202.86 51.996 203.068 51.944C203.276 51.8833 203.441 51.801 203.562 51.697C203.684 51.5843 203.744 51.424 203.744 51.216C203.744 50.9733 203.697 50.7783 203.601 50.631C203.515 50.4837 203.398 50.371 203.25 50.293C203.112 50.215 202.951 50.163 202.769 50.137C202.596 50.111 202.423 50.098 202.249 50.098C201.781 50.098 201.391 50.189 201.079 50.371C200.767 50.5443 200.598 50.878 200.572 51.372H199.467C199.485 50.956 199.571 50.605 199.727 50.319C199.883 50.033 200.091 49.8033 200.351 49.63C200.611 49.448 200.906 49.318 201.235 49.24C201.573 49.162 201.933 49.123 202.314 49.123C202.618 49.123 202.917 49.1447 203.211 49.188C203.515 49.2313 203.788 49.3223 204.03 49.461C204.273 49.591 204.468 49.7773 204.615 50.02C204.763 50.2627 204.836 50.579 204.836 50.969V54.427C204.836 54.687 204.849 54.8777 204.875 54.999C204.91 55.1203 205.014 55.181 205.187 55.181C205.283 55.181 205.395 55.1593 205.525 55.116V55.974ZM203.731 52.529C203.593 52.633 203.411 52.711 203.185 52.763C202.96 52.8063 202.722 52.8453 202.47 52.88C202.228 52.906 201.981 52.9407 201.729 52.984C201.478 53.0187 201.253 53.0793 201.053 53.166C200.854 53.2527 200.689 53.3783 200.559 53.543C200.438 53.699 200.377 53.9157 200.377 54.193C200.377 54.375 200.412 54.531 200.481 54.661C200.559 54.7823 200.655 54.882 200.767 54.96C200.889 55.038 201.027 55.0943 201.183 55.129C201.339 55.1637 201.504 55.181 201.677 55.181C202.041 55.181 202.353 55.1333 202.613 55.038C202.873 54.934 203.086 54.8083 203.25 54.661C203.415 54.505 203.536 54.3403 203.614 54.167C203.692 53.985 203.731 53.816 203.731 53.66V52.529ZM209.583 56L212.04 49.279H210.883L209.05 54.882H209.024L207.139 49.279H205.904L208.4 56H209.583ZM219.008 55.974C218.817 56.0867 218.553 56.143 218.215 56.143C217.929 56.143 217.699 56.065 217.526 55.909C217.361 55.7443 217.279 55.48 217.279 55.116C216.975 55.48 216.62 55.7443 216.213 55.909C215.814 56.065 215.381 56.143 214.913 56.143C214.609 56.143 214.319 56.1083 214.042 56.039C213.773 55.9697 213.539 55.8613 213.34 55.714C213.14 55.5667 212.98 55.376 212.859 55.142C212.746 54.8993 212.69 54.609 212.69 54.271C212.69 53.8897 212.755 53.5777 212.885 53.335C213.015 53.0923 213.184 52.8973 213.392 52.75C213.608 52.594 213.851 52.477 214.12 52.399C214.397 52.321 214.679 52.256 214.965 52.204C215.268 52.1433 215.554 52.1 215.823 52.074C216.1 52.0393 216.343 51.996 216.551 51.944C216.759 51.8833 216.923 51.801 217.045 51.697C217.166 51.5843 217.227 51.424 217.227 51.216C217.227 50.9733 217.179 50.7783 217.084 50.631C216.997 50.4837 216.88 50.371 216.733 50.293C216.594 50.215 216.434 50.163 216.252 50.137C216.078 50.111 215.905 50.098 215.732 50.098C215.264 50.098 214.874 50.189 214.562 50.371C214.25 50.5443 214.081 50.878 214.055 51.372H212.95C212.967 50.956 213.054 50.605 213.21 50.319C213.366 50.033 213.574 49.8033 213.834 49.63C214.094 49.448 214.388 49.318 214.718 49.24C215.056 49.162 215.415 49.123 215.797 49.123C216.1 49.123 216.399 49.1447 216.694 49.188C216.997 49.2313 217.27 49.3223 217.513 49.461C217.755 49.591 217.95 49.7773 218.098 50.02C218.245 50.2627 218.319 50.579 218.319 50.969V54.427C218.319 54.687 218.332 54.8777 218.358 54.999C218.392 55.1203 218.496 55.181 218.67 55.181C218.765 55.181 218.878 55.1593 219.008 55.116V55.974ZM217.214 52.529C217.075 52.633 216.893 52.711 216.668 52.763C216.442 52.8063 216.204 52.8453 215.953 52.88C215.71 52.906 215.463 52.9407 215.212 52.984C214.96 53.0187 214.735 53.0793 214.536 53.166C214.336 53.2527 214.172 53.3783 214.042 53.543C213.92 53.699 213.86 53.9157 213.86 54.193C213.86 54.375 213.894 54.531 213.964 54.661C214.042 54.7823 214.137 54.882 214.25 54.96C214.371 55.038 214.51 55.0943 214.666 55.129C214.822 55.1637 214.986 55.181 215.16 55.181C215.524 55.181 215.836 55.1333 216.096 55.038C216.356 54.934 216.568 54.8083 216.733 54.661C216.897 54.505 217.019 54.3403 217.097 54.167C217.175 53.985 217.214 53.816 217.214 53.66V52.529ZM221.206 48.07V46.718H220.101V48.07H221.206ZM220.101 49.279V56H221.206V49.279H220.101ZM222.983 46.718V56H224.088V46.718H222.983ZM231.754 55.974C231.563 56.0867 231.299 56.143 230.961 56.143C230.675 56.143 230.445 56.065 230.272 55.909C230.107 55.7443 230.025 55.48 230.025 55.116C229.721 55.48 229.366 55.7443 228.959 55.909C228.56 56.065 228.127 56.143 227.659 56.143C227.355 56.143 227.065 56.1083 226.788 56.039C226.519 55.9697 226.285 55.8613 226.086 55.714C225.886 55.5667 225.726 55.376 225.605 55.142C225.492 54.8993 225.436 54.609 225.436 54.271C225.436 53.8897 225.501 53.5777 225.631 53.335C225.761 53.0923 225.93 52.8973 226.138 52.75C226.354 52.594 226.597 52.477 226.866 52.399C227.143 52.321 227.425 52.256 227.711 52.204C228.014 52.1433 228.3 52.1 228.569 52.074C228.846 52.0393 229.089 51.996 229.297 51.944C229.505 51.8833 229.669 51.801 229.791 51.697C229.912 51.5843 229.973 51.424 229.973 51.216C229.973 50.9733 229.925 50.7783 229.83 50.631C229.743 50.4837 229.626 50.371 229.479 50.293C229.34 50.215 229.18 50.163 228.998 50.137C228.824 50.111 228.651 50.098 228.478 50.098C228.01 50.098 227.62 50.189 227.308 50.371C226.996 50.5443 226.827 50.878 226.801 51.372H225.696C225.713 50.956 225.8 50.605 225.956 50.319C226.112 50.033 226.32 49.8033 226.58 49.63C226.84 49.448 227.134 49.318 227.464 49.24C227.802 49.162 228.161 49.123 228.543 49.123C228.846 49.123 229.145 49.1447 229.44 49.188C229.743 49.2313 230.016 49.3223 230.259 49.461C230.501 49.591 230.696 49.7773 230.844 50.02C230.991 50.2627 231.065 50.579 231.065 50.969V54.427C231.065 54.687 231.078 54.8777 231.104 54.999C231.138 55.1203 231.242 55.181 231.416 55.181C231.511 55.181 231.624 55.1593 231.754 55.116V55.974ZM229.96 52.529C229.821 52.633 229.639 52.711 229.414 52.763C229.188 52.8063 228.95 52.8453 228.699 52.88C228.456 52.906 228.209 52.9407 227.958 52.984C227.706 53.0187 227.481 53.0793 227.282 53.166C227.082 53.2527 226.918 53.3783 226.788 53.543C226.666 53.699 226.606 53.9157 226.606 54.193C226.606 54.375 226.64 54.531 226.71 54.661C226.788 54.7823 226.883 54.882 226.996 54.96C227.117 55.038 227.256 55.0943 227.412 55.129C227.568 55.1637 227.732 55.181 227.906 55.181C228.27 55.181 228.582 55.1333 228.842 55.038C229.102 54.934 229.314 54.8083 229.479 54.661C229.643 54.505 229.765 54.3403 229.843 54.167C229.921 53.985 229.96 53.816 229.96 53.66V52.529ZM232.821 46.718V56H233.926V55.103H233.952C234.074 55.3023 234.221 55.4713 234.394 55.61C234.576 55.74 234.767 55.844 234.966 55.922C235.166 56 235.365 56.0563 235.564 56.091C235.772 56.1257 235.959 56.143 236.123 56.143C236.635 56.143 237.081 56.052 237.462 55.87C237.852 55.688 238.173 55.441 238.424 55.129C238.684 54.8083 238.875 54.4357 238.996 54.011C239.126 53.5863 239.191 53.1357 239.191 52.659C239.191 52.1823 239.126 51.7317 238.996 51.307C238.866 50.8823 238.671 50.5097 238.411 50.189C238.16 49.8597 237.839 49.5997 237.449 49.409C237.068 49.2183 236.617 49.123 236.097 49.123C235.629 49.123 235.2 49.2097 234.81 49.383C234.42 49.5477 234.134 49.8163 233.952 50.189H233.926V46.718H232.821ZM238.021 52.581C238.021 52.9103 237.987 53.231 237.917 53.543C237.848 53.855 237.735 54.1323 237.579 54.375C237.423 54.6177 237.215 54.8127 236.955 54.96C236.704 55.1073 236.388 55.181 236.006 55.181C235.625 55.181 235.3 55.1117 235.031 54.973C234.763 54.8257 234.542 54.635 234.368 54.401C234.204 54.167 234.082 53.8983 234.004 53.595C233.926 53.283 233.887 52.9623 233.887 52.633C233.887 52.321 233.922 52.0133 233.991 51.71C234.069 51.4067 234.191 51.138 234.355 50.904C234.52 50.6613 234.732 50.4663 234.992 50.319C235.252 50.1717 235.569 50.098 235.941 50.098C236.297 50.098 236.604 50.1673 236.864 50.306C237.133 50.4447 237.35 50.631 237.514 50.865C237.688 51.099 237.813 51.3677 237.891 51.671C237.978 51.9657 238.021 52.269 238.021 52.581ZM240.553 46.718V56H241.658V46.718H240.553ZM248.037 51.996H244.176C244.193 51.736 244.25 51.4933 244.345 51.268C244.44 51.034 244.57 50.8303 244.735 50.657C244.9 50.4837 245.095 50.3493 245.32 50.254C245.554 50.15 245.814 50.098 246.1 50.098C246.377 50.098 246.629 50.15 246.854 50.254C247.088 50.3493 247.287 50.4837 247.452 50.657C247.625 50.8217 247.76 51.021 247.855 51.255C247.959 51.489 248.02 51.736 248.037 51.996ZM249.103 53.868H248.011C247.916 54.31 247.716 54.6393 247.413 54.856C247.118 55.0727 246.737 55.181 246.269 55.181C245.905 55.181 245.589 55.1203 245.32 54.999C245.051 54.8777 244.83 54.7173 244.657 54.518C244.484 54.31 244.358 54.076 244.28 53.816C244.202 53.5473 244.167 53.2657 244.176 52.971H249.207C249.224 52.5637 249.185 52.1347 249.09 51.684C249.003 51.2333 248.839 50.8173 248.596 50.436C248.362 50.0547 248.046 49.7427 247.647 49.5C247.257 49.2487 246.763 49.123 246.165 49.123C245.706 49.123 245.281 49.2097 244.891 49.383C244.51 49.5563 244.176 49.799 243.89 50.111C243.613 50.423 243.396 50.7913 243.24 51.216C243.084 51.6407 243.006 52.1087 243.006 52.62C243.023 53.1313 243.097 53.6037 243.227 54.037C243.366 54.4703 243.569 54.843 243.838 55.155C244.107 55.467 244.436 55.7097 244.826 55.883C245.225 56.0563 245.693 56.143 246.23 56.143C246.993 56.143 247.625 55.9523 248.128 55.571C248.631 55.1897 248.956 54.622 249.103 53.868ZM255.141 48.07V46.718H254.036V48.07H255.141ZM254.036 49.279V56H255.141V49.279H254.036ZM256.853 49.279V56H257.958V52.204C257.958 51.9007 257.997 51.6233 258.075 51.372C258.161 51.112 258.287 50.8867 258.452 50.696C258.616 50.5053 258.82 50.358 259.063 50.254C259.314 50.15 259.609 50.098 259.947 50.098C260.371 50.098 260.705 50.2193 260.948 50.462C261.19 50.7047 261.312 51.034 261.312 51.45V56H262.417V51.58C262.417 51.216 262.378 50.8867 262.3 50.592C262.23 50.2887 262.105 50.0287 261.923 49.812C261.741 49.5953 261.502 49.4263 261.208 49.305C260.913 49.1837 260.545 49.123 260.103 49.123C259.106 49.123 258.378 49.5303 257.919 50.345H257.893V49.279H256.853ZM269.228 49.279V47.264H268.123V49.279H266.979V50.254H268.123V54.531C268.123 54.843 268.154 55.0943 268.214 55.285C268.275 55.4757 268.366 55.623 268.487 55.727C268.617 55.831 268.782 55.9047 268.981 55.948C269.189 55.9827 269.436 56 269.722 56H270.567V55.025H270.06C269.887 55.025 269.744 55.0207 269.631 55.012C269.527 54.9947 269.445 54.9643 269.384 54.921C269.324 54.8777 269.28 54.817 269.254 54.739C269.237 54.661 269.228 54.557 269.228 54.427V50.254H270.567V49.279H269.228ZM272.601 52.646C272.601 52.2387 272.653 51.879 272.757 51.567C272.87 51.2463 273.021 50.9777 273.212 50.761C273.403 50.5443 273.624 50.3797 273.875 50.267C274.135 50.1543 274.408 50.098 274.694 50.098C274.98 50.098 275.249 50.1543 275.5 50.267C275.76 50.3797 275.985 50.5443 276.176 50.761C276.367 50.9777 276.514 51.2463 276.618 51.567C276.731 51.879 276.787 52.2387 276.787 52.646C276.787 53.0533 276.731 53.4173 276.618 53.738C276.514 54.05 276.367 54.3143 276.176 54.531C275.985 54.739 275.76 54.8993 275.5 55.012C275.249 55.1247 274.98 55.181 274.694 55.181C274.408 55.181 274.135 55.1247 273.875 55.012C273.624 54.8993 273.403 54.739 273.212 54.531C273.021 54.3143 272.87 54.05 272.757 53.738C272.653 53.4173 272.601 53.0533 272.601 52.646ZM271.431 52.646C271.431 53.14 271.5 53.5993 271.639 54.024C271.778 54.4487 271.986 54.8213 272.263 55.142C272.54 55.454 272.883 55.701 273.29 55.883C273.697 56.0563 274.165 56.143 274.694 56.143C275.231 56.143 275.699 56.0563 276.098 55.883C276.505 55.701 276.848 55.454 277.125 55.142C277.402 54.8213 277.61 54.4487 277.749 54.024C277.888 53.5993 277.957 53.14 277.957 52.646C277.957 52.152 277.888 51.6927 277.749 51.268C277.61 50.8347 277.402 50.462 277.125 50.15C276.848 49.8293 276.505 49.578 276.098 49.396C275.699 49.214 275.231 49.123 274.694 49.123C274.165 49.123 273.697 49.214 273.29 49.396C272.883 49.578 272.54 49.8293 272.263 50.15C271.986 50.462 271.778 50.8347 271.639 51.268C271.5 51.6927 271.431 52.152 271.431 52.646ZM280.066 52.698C280.066 52.3687 280.1 52.048 280.17 51.736C280.239 51.424 280.352 51.1467 280.508 50.904C280.664 50.6613 280.872 50.4663 281.132 50.319C281.392 50.1717 281.708 50.098 282.081 50.098C282.462 50.098 282.787 50.1717 283.056 50.319C283.324 50.4577 283.541 50.644 283.706 50.878C283.879 51.112 284.005 51.385 284.083 51.697C284.161 52.0003 284.2 52.3167 284.2 52.646C284.2 52.958 284.161 53.2657 284.083 53.569C284.013 53.8723 283.896 54.1453 283.732 54.388C283.567 54.622 283.355 54.8127 283.095 54.96C282.835 55.1073 282.518 55.181 282.146 55.181C281.79 55.181 281.478 55.1117 281.21 54.973C280.95 54.8343 280.733 54.648 280.56 54.414C280.395 54.18 280.269 53.9157 280.183 53.621C280.105 53.3177 280.066 53.01 280.066 52.698ZM285.266 56V46.718H284.161V50.176H284.135C284.013 49.9767 283.862 49.812 283.68 49.682C283.506 49.5433 283.32 49.435 283.121 49.357C282.921 49.2703 282.722 49.2097 282.523 49.175C282.323 49.1403 282.137 49.123 281.964 49.123C281.452 49.123 281.002 49.2183 280.612 49.409C280.23 49.591 279.91 49.8423 279.65 50.163C279.398 50.475 279.208 50.8433 279.078 51.268C278.956 51.6927 278.896 52.1433 278.896 52.62C278.896 53.0967 278.961 53.5473 279.091 53.972C279.221 54.3967 279.411 54.7693 279.663 55.09C279.923 55.4107 280.243 55.6663 280.625 55.857C281.015 56.0477 281.47 56.143 281.99 56.143C282.458 56.143 282.887 56.0607 283.277 55.896C283.667 55.7313 283.953 55.4627 284.135 55.09H284.161V56H285.266ZM292.92 55.974C292.729 56.0867 292.465 56.143 292.127 56.143C291.841 56.143 291.611 56.065 291.438 55.909C291.273 55.7443 291.191 55.48 291.191 55.116C290.887 55.48 290.532 55.7443 290.125 55.909C289.726 56.065 289.293 56.143 288.825 56.143C288.521 56.143 288.231 56.1083 287.954 56.039C287.685 55.9697 287.451 55.8613 287.252 55.714C287.052 55.5667 286.892 55.376 286.771 55.142C286.658 54.8993 286.602 54.609 286.602 54.271C286.602 53.8897 286.667 53.5777 286.797 53.335C286.927 53.0923 287.096 52.8973 287.304 52.75C287.52 52.594 287.763 52.477 288.032 52.399C288.309 52.321 288.591 52.256 288.877 52.204C289.18 52.1433 289.466 52.1 289.735 52.074C290.012 52.0393 290.255 51.996 290.463 51.944C290.671 51.8833 290.835 51.801 290.957 51.697C291.078 51.5843 291.139 51.424 291.139 51.216C291.139 50.9733 291.091 50.7783 290.996 50.631C290.909 50.4837 290.792 50.371 290.645 50.293C290.506 50.215 290.346 50.163 290.164 50.137C289.99 50.111 289.817 50.098 289.644 50.098C289.176 50.098 288.786 50.189 288.474 50.371C288.162 50.5443 287.993 50.878 287.967 51.372H286.862C286.879 50.956 286.966 50.605 287.122 50.319C287.278 50.033 287.486 49.8033 287.746 49.63C288.006 49.448 288.3 49.318 288.63 49.24C288.968 49.162 289.327 49.123 289.709 49.123C290.012 49.123 290.311 49.1447 290.606 49.188C290.909 49.2313 291.182 49.3223 291.425 49.461C291.667 49.591 291.862 49.7773 292.01 50.02C292.157 50.2627 292.231 50.579 292.231 50.969V54.427C292.231 54.687 292.244 54.8777 292.27 54.999C292.304 55.1203 292.408 55.181 292.582 55.181C292.677 55.181 292.79 55.1593 292.92 55.116V55.974ZM291.126 52.529C290.987 52.633 290.805 52.711 290.58 52.763C290.354 52.8063 290.116 52.8453 289.865 52.88C289.622 52.906 289.375 52.9407 289.124 52.984C288.872 53.0187 288.647 53.0793 288.448 53.166C288.248 53.2527 288.084 53.3783 287.954 53.543C287.832 53.699 287.772 53.9157 287.772 54.193C287.772 54.375 287.806 54.531 287.876 54.661C287.954 54.7823 288.049 54.882 288.162 54.96C288.283 55.038 288.422 55.0943 288.578 55.129C288.734 55.1637 288.898 55.181 289.072 55.181C289.436 55.181 289.748 55.1333 290.008 55.038C290.268 54.934 290.48 54.8083 290.645 54.661C290.809 54.505 290.931 54.3403 291.009 54.167C291.087 53.985 291.126 53.816 291.126 53.66V52.529ZM296.587 56.897C296.457 57.2263 296.327 57.5037 296.197 57.729C296.076 57.9543 295.937 58.1363 295.781 58.275C295.634 58.4223 295.465 58.5263 295.274 58.587C295.092 58.6563 294.88 58.691 294.637 58.691C294.507 58.691 294.377 58.6823 294.247 58.665C294.117 58.6477 293.992 58.6173 293.87 58.574V57.56C293.966 57.6033 294.074 57.638 294.195 57.664C294.325 57.6987 294.434 57.716 294.52 57.716C294.746 57.716 294.932 57.6597 295.079 57.547C295.235 57.443 295.352 57.2913 295.43 57.092L295.885 55.961L293.22 49.279H294.468L296.431 54.778H296.457L298.342 49.279H299.512L296.587 56.897ZM300.695 46.718V48.161H301.462C301.462 48.3083 301.449 48.46 301.423 48.616C301.406 48.7633 301.367 48.8977 301.306 49.019C301.246 49.1403 301.168 49.24 301.072 49.318C300.977 49.3873 300.856 49.422 300.708 49.422V50.072C300.96 50.072 301.172 50.02 301.345 49.916C301.527 49.812 301.675 49.6733 301.787 49.5C301.909 49.3267 301.995 49.1273 302.047 48.902C302.108 48.668 302.138 48.421 302.138 48.161V46.718H300.695ZM303.778 53.881H302.673C302.69 54.297 302.777 54.6523 302.933 54.947C303.089 55.233 303.297 55.467 303.557 55.649C303.817 55.8223 304.116 55.948 304.454 56.026C304.792 56.104 305.147 56.143 305.52 56.143C305.858 56.143 306.196 56.1083 306.534 56.039C306.88 55.9783 307.188 55.8657 307.457 55.701C307.734 55.5363 307.955 55.3197 308.12 55.051C308.293 54.7823 308.38 54.4443 308.38 54.037C308.38 53.7163 308.315 53.4477 308.185 53.231C308.063 53.0143 307.899 52.8367 307.691 52.698C307.491 52.5507 307.257 52.4337 306.989 52.347C306.729 52.2603 306.46 52.1867 306.183 52.126C305.923 52.0653 305.663 52.009 305.403 51.957C305.143 51.8963 304.909 51.827 304.701 51.749C304.493 51.6623 304.319 51.5583 304.181 51.437C304.051 51.307 303.986 51.1467 303.986 50.956C303.986 50.7827 304.029 50.644 304.116 50.54C304.202 50.4273 304.315 50.3407 304.454 50.28C304.592 50.2107 304.744 50.163 304.909 50.137C305.082 50.111 305.251 50.098 305.416 50.098C305.598 50.098 305.775 50.1197 305.949 50.163C306.131 50.1977 306.295 50.2583 306.443 50.345C306.59 50.4317 306.711 50.5487 306.807 50.696C306.902 50.8347 306.958 51.0123 306.976 51.229H308.081C308.055 50.8217 307.968 50.4837 307.821 50.215C307.673 49.9377 307.474 49.721 307.223 49.565C306.98 49.4003 306.698 49.2877 306.378 49.227C306.057 49.1577 305.706 49.123 305.325 49.123C305.03 49.123 304.731 49.162 304.428 49.24C304.133 49.3093 303.864 49.422 303.622 49.578C303.388 49.7253 303.193 49.9203 303.037 50.163C302.889 50.4057 302.816 50.696 302.816 51.034C302.816 51.4673 302.924 51.8053 303.141 52.048C303.357 52.2907 303.626 52.4813 303.947 52.62C304.276 52.75 304.631 52.854 305.013 52.932C305.394 53.0013 305.745 53.0837 306.066 53.179C306.395 53.2657 306.668 53.3827 306.885 53.53C307.101 53.6773 307.21 53.894 307.21 54.18C307.21 54.388 307.158 54.5613 307.054 54.7C306.95 54.83 306.815 54.9297 306.651 54.999C306.495 55.0683 306.321 55.116 306.131 55.142C305.94 55.168 305.758 55.181 305.585 55.181C305.359 55.181 305.138 55.1593 304.922 55.116C304.714 55.0727 304.523 55.0033 304.35 54.908C304.185 54.804 304.051 54.6697 303.947 54.505C303.843 54.3317 303.786 54.1237 303.778 53.881ZM313.22 49.279V56H314.325V51.814C314.325 51.684 314.355 51.5237 314.416 51.333C314.485 51.1337 314.589 50.943 314.728 50.761C314.875 50.579 315.061 50.423 315.287 50.293C315.521 50.163 315.798 50.098 316.119 50.098C316.37 50.098 316.574 50.137 316.73 50.215C316.894 50.2843 317.024 50.3883 317.12 50.527C317.215 50.657 317.28 50.813 317.315 50.995C317.358 51.177 317.38 51.3763 317.38 51.593V56H318.485V51.814C318.485 51.294 318.641 50.878 318.953 50.566C319.265 50.254 319.694 50.098 320.24 50.098C320.508 50.098 320.725 50.137 320.89 50.215C321.063 50.293 321.197 50.4013 321.293 50.54C321.388 50.67 321.453 50.826 321.488 51.008C321.522 51.19 321.54 51.385 321.54 51.593V56H322.645V51.073C322.645 50.7263 322.588 50.4317 322.476 50.189C322.372 49.9377 322.22 49.734 322.021 49.578C321.83 49.422 321.596 49.3093 321.319 49.24C321.05 49.162 320.747 49.123 320.409 49.123C319.967 49.123 319.559 49.2227 319.187 49.422C318.823 49.6213 318.528 49.903 318.303 50.267C318.164 49.851 317.926 49.5563 317.588 49.383C317.25 49.2097 316.873 49.123 316.457 49.123C315.512 49.123 314.788 49.5043 314.286 50.267H314.26V49.279H313.22ZM330.257 55.974C330.066 56.0867 329.802 56.143 329.464 56.143C329.178 56.143 328.948 56.065 328.775 55.909C328.61 55.7443 328.528 55.48 328.528 55.116C328.224 55.48 327.869 55.7443 327.462 55.909C327.063 56.065 326.63 56.143 326.162 56.143C325.858 56.143 325.568 56.1083 325.291 56.039C325.022 55.9697 324.788 55.8613 324.589 55.714C324.389 55.5667 324.229 55.376 324.108 55.142C323.995 54.8993 323.939 54.609 323.939 54.271C323.939 53.8897 324.004 53.5777 324.134 53.335C324.264 53.0923 324.433 52.8973 324.641 52.75C324.857 52.594 325.1 52.477 325.369 52.399C325.646 52.321 325.928 52.256 326.214 52.204C326.517 52.1433 326.803 52.1 327.072 52.074C327.349 52.0393 327.592 51.996 327.8 51.944C328.008 51.8833 328.172 51.801 328.294 51.697C328.415 51.5843 328.476 51.424 328.476 51.216C328.476 50.9733 328.428 50.7783 328.333 50.631C328.246 50.4837 328.129 50.371 327.982 50.293C327.843 50.215 327.683 50.163 327.501 50.137C327.327 50.111 327.154 50.098 326.981 50.098C326.513 50.098 326.123 50.189 325.811 50.371C325.499 50.5443 325.33 50.878 325.304 51.372H324.199C324.216 50.956 324.303 50.605 324.459 50.319C324.615 50.033 324.823 49.8033 325.083 49.63C325.343 49.448 325.637 49.318 325.967 49.24C326.305 49.162 326.664 49.123 327.046 49.123C327.349 49.123 327.648 49.1447 327.943 49.188C328.246 49.2313 328.519 49.3223 328.762 49.461C329.004 49.591 329.199 49.7773 329.347 50.02C329.494 50.2627 329.568 50.579 329.568 50.969V54.427C329.568 54.687 329.581 54.8777 329.607 54.999C329.641 55.1203 329.745 55.181 329.919 55.181C330.014 55.181 330.127 55.1593 330.257 55.116V55.974ZM328.463 52.529C328.324 52.633 328.142 52.711 327.917 52.763C327.691 52.8063 327.453 52.8453 327.202 52.88C326.959 52.906 326.712 52.9407 326.461 52.984C326.209 53.0187 325.984 53.0793 325.785 53.166C325.585 53.2527 325.421 53.3783 325.291 53.543C325.169 53.699 325.109 53.9157 325.109 54.193C325.109 54.375 325.143 54.531 325.213 54.661C325.291 54.7823 325.386 54.882 325.499 54.96C325.62 55.038 325.759 55.0943 325.915 55.129C326.071 55.1637 326.235 55.181 326.409 55.181C326.773 55.181 327.085 55.1333 327.345 55.038C327.605 54.934 327.817 54.8083 327.982 54.661C328.146 54.505 328.268 54.3403 328.346 54.167C328.424 53.985 328.463 53.816 328.463 53.66V52.529ZM331.246 49.279V56H332.351V53.01C332.351 52.5767 332.394 52.1953 332.481 51.866C332.568 51.528 332.706 51.242 332.897 51.008C333.088 50.774 333.339 50.5963 333.651 50.475C333.963 50.3537 334.34 50.293 334.782 50.293V49.123C334.184 49.1057 333.69 49.227 333.3 49.487C332.91 49.747 332.581 50.15 332.312 50.696H332.286V49.279H331.246ZM335.679 46.718V56H336.784V53.452L337.824 52.49L340.125 56H341.529L338.669 51.723L341.334 49.279H339.852L336.784 52.217V46.718H335.679ZM347.022 51.996H343.161C343.179 51.736 343.235 51.4933 343.33 51.268C343.426 51.034 343.556 50.8303 343.72 50.657C343.885 50.4837 344.08 50.3493 344.305 50.254C344.539 50.15 344.799 50.098 345.085 50.098C345.363 50.098 345.614 50.15 345.839 50.254C346.073 50.3493 346.273 50.4837 346.437 50.657C346.611 50.8217 346.745 51.021 346.84 51.255C346.944 51.489 347.005 51.736 347.022 51.996ZM348.088 53.868H346.996C346.901 54.31 346.702 54.6393 346.398 54.856C346.104 55.0727 345.722 55.181 345.254 55.181C344.89 55.181 344.574 55.1203 344.305 54.999C344.037 54.8777 343.816 54.7173 343.642 54.518C343.469 54.31 343.343 54.076 343.265 53.816C343.187 53.5473 343.153 53.2657 343.161 52.971H348.192C348.21 52.5637 348.171 52.1347 348.075 51.684C347.989 51.2333 347.824 50.8173 347.581 50.436C347.347 50.0547 347.031 49.7427 346.632 49.5C346.242 49.2487 345.748 49.123 345.15 49.123C344.691 49.123 344.266 49.2097 343.876 49.383C343.495 49.5563 343.161 49.799 342.875 50.111C342.598 50.423 342.381 50.7913 342.225 51.216C342.069 51.6407 341.991 52.1087 341.991 52.62C342.009 53.1313 342.082 53.6037 342.212 54.037C342.351 54.4703 342.555 54.843 342.823 55.155C343.092 55.467 343.421 55.7097 343.811 55.883C344.21 56.0563 344.678 56.143 345.215 56.143C345.978 56.143 346.611 55.9523 347.113 55.571C347.616 55.1897 347.941 54.622 348.088 53.868ZM350.872 49.279V47.264H349.767V49.279H348.623V50.254H349.767V54.531C349.767 54.843 349.797 55.0943 349.858 55.285C349.919 55.4757 350.01 55.623 350.131 55.727C350.261 55.831 350.426 55.9047 350.625 55.948C350.833 55.9827 351.08 56 351.366 56H352.211V55.025H351.704C351.531 55.025 351.388 55.0207 351.275 55.012C351.171 54.9947 351.089 54.9643 351.028 54.921C350.967 54.8777 350.924 54.817 350.898 54.739C350.881 54.661 350.872 54.557 350.872 54.427V50.254H352.211V49.279H350.872Z" fill="#6F6C99"/>
</svg>
