<svg width="144" height="58" viewBox="0 0 144 58" fill="none" xmlns="http://www.w3.org/2000/svg">
<path d="M67.068 19.962V16.344H70.164C70.812 16.344 71.298 16.488 71.622 16.776C71.946 17.052 72.108 17.502 72.108 18.126C72.108 18.774 71.946 19.242 71.622 19.53C71.298 19.818 70.812 19.962 70.164 19.962H67.068ZM64.242 14.148V27H67.068V21.978H69.894C70.602 21.978 71.112 22.134 71.424 22.446C71.736 22.758 71.94 23.25 72.036 23.922C72.108 24.438 72.162 24.978 72.198 25.542C72.234 26.106 72.33 26.592 72.486 27H75.312C75.18 26.82 75.078 26.604 75.006 26.352C74.946 26.088 74.898 25.812 74.862 25.524C74.838 25.236 74.82 24.954 74.808 24.678C74.796 24.402 74.784 24.162 74.772 23.958C74.748 23.634 74.7 23.31 74.628 22.986C74.568 22.662 74.466 22.368 74.322 22.104C74.178 21.828 73.992 21.594 73.764 21.402C73.536 21.198 73.248 21.048 72.9 20.952V20.916C73.62 20.628 74.136 20.208 74.448 19.656C74.772 19.104 74.934 18.45 74.934 17.694C74.934 17.202 74.844 16.746 74.664 16.326C74.496 15.894 74.244 15.516 73.908 15.192C73.584 14.868 73.188 14.616 72.72 14.436C72.264 14.244 71.748 14.148 71.172 14.148H64.242ZM83.2262 21.348H79.0682C79.0802 21.168 79.1162 20.964 79.1762 20.736C79.2482 20.508 79.3622 20.292 79.5182 20.088C79.6862 19.884 79.9022 19.716 80.1662 19.584C80.4422 19.44 80.7842 19.368 81.1922 19.368C81.8162 19.368 82.2782 19.536 82.5782 19.872C82.8902 20.208 83.1062 20.7 83.2262 21.348ZM79.0682 22.968H85.7822C85.8302 22.248 85.7702 21.558 85.6022 20.898C85.4342 20.238 85.1582 19.65 84.7742 19.134C84.4022 18.618 83.9222 18.21 83.3342 17.91C82.7462 17.598 82.0562 17.442 81.2642 17.442C80.5562 17.442 79.9082 17.568 79.3202 17.82C78.7442 18.072 78.2462 18.42 77.8262 18.864C77.4062 19.296 77.0822 19.812 76.8542 20.412C76.6262 21.012 76.5122 21.66 76.5122 22.356C76.5122 23.076 76.6202 23.736 76.8362 24.336C77.0642 24.936 77.3822 25.452 77.7902 25.884C78.1982 26.316 78.6962 26.652 79.2842 26.892C79.8722 27.12 80.5322 27.234 81.2642 27.234C82.3202 27.234 83.2202 26.994 83.9642 26.514C84.7082 26.034 85.2602 25.236 85.6202 24.12H83.3702C83.2862 24.408 83.0582 24.684 82.6862 24.948C82.3142 25.2 81.8702 25.326 81.3542 25.326C80.6342 25.326 80.0822 25.14 79.6982 24.768C79.3142 24.396 79.1042 23.796 79.0682 22.968ZM93.6342 20.97H96.1362C96.1002 20.37 95.9562 19.854 95.7042 19.422C95.4522 18.978 95.1222 18.612 94.7142 18.324C94.3182 18.024 93.8622 17.802 93.3462 17.658C92.8422 17.514 92.3142 17.442 91.7622 17.442C91.0062 17.442 90.3342 17.568 89.7462 17.82C89.1582 18.072 88.6602 18.426 88.2522 18.882C87.8442 19.326 87.5322 19.86 87.3162 20.484C87.1122 21.096 87.0102 21.762 87.0102 22.482C87.0102 23.178 87.1242 23.82 87.3522 24.408C87.5802 24.984 87.8982 25.482 88.3062 25.902C88.7142 26.322 89.2062 26.652 89.7822 26.892C90.3702 27.12 91.0122 27.234 91.7082 27.234C92.9442 27.234 93.9582 26.91 94.7502 26.262C95.5422 25.614 96.0222 24.672 96.1902 23.436H93.7242C93.6402 24.012 93.4302 24.474 93.0942 24.822C92.7702 25.158 92.3022 25.326 91.6902 25.326C91.2942 25.326 90.9582 25.236 90.6822 25.056C90.4062 24.876 90.1842 24.648 90.0162 24.372C89.8602 24.084 89.7462 23.766 89.6742 23.418C89.6022 23.07 89.5662 22.728 89.5662 22.392C89.5662 22.044 89.6022 21.696 89.6742 21.348C89.7462 20.988 89.8662 20.664 90.0342 20.376C90.2142 20.076 90.4422 19.836 90.7182 19.656C90.9942 19.464 91.3362 19.368 91.7442 19.368C92.8362 19.368 93.4662 19.902 93.6342 20.97ZM103.898 21.348H99.7401C99.7521 21.168 99.7881 20.964 99.8481 20.736C99.9201 20.508 100.034 20.292 100.19 20.088C100.358 19.884 100.574 19.716 100.838 19.584C101.114 19.44 101.456 19.368 101.864 19.368C102.488 19.368 102.95 19.536 103.25 19.872C103.562 20.208 103.778 20.7 103.898 21.348ZM99.7401 22.968H106.454C106.502 22.248 106.442 21.558 106.274 20.898C106.106 20.238 105.83 19.65 105.446 19.134C105.074 18.618 104.594 18.21 104.006 17.91C103.418 17.598 102.728 17.442 101.936 17.442C101.228 17.442 100.58 17.568 99.9921 17.82C99.4161 18.072 98.9181 18.42 98.4981 18.864C98.0781 19.296 97.7541 19.812 97.5261 20.412C97.2981 21.012 97.1841 21.66 97.1841 22.356C97.1841 23.076 97.2921 23.736 97.5081 24.336C97.7361 24.936 98.0541 25.452 98.4621 25.884C98.8701 26.316 99.3681 26.652 99.9561 26.892C100.544 27.12 101.204 27.234 101.936 27.234C102.992 27.234 103.892 26.994 104.636 26.514C105.38 26.034 105.932 25.236 106.292 24.12H104.042C103.958 24.408 103.73 24.684 103.358 24.948C102.986 25.2 102.542 25.326 102.026 25.326C101.306 25.326 100.754 25.14 100.37 24.768C99.9861 24.396 99.7761 23.796 99.7401 22.968ZM107.97 14.148V27H110.526V22.122C110.526 21.174 110.682 20.496 110.994 20.088C111.306 19.668 111.81 19.458 112.506 19.458C113.118 19.458 113.544 19.65 113.784 20.034C114.024 20.406 114.144 20.976 114.144 21.744V27H116.7V21.276C116.7 20.7 116.646 20.178 116.538 19.71C116.442 19.23 116.268 18.828 116.016 18.504C115.764 18.168 115.416 17.91 114.972 17.73C114.54 17.538 113.982 17.442 113.298 17.442C112.818 17.442 112.326 17.568 111.822 17.82C111.318 18.06 110.904 18.45 110.58 18.99H110.526V14.148H107.97ZM120.944 17.694V14.904H119.414V17.694H117.83V19.044H119.414V24.966C119.414 25.398 119.456 25.746 119.54 26.01C119.624 26.274 119.75 26.478 119.918 26.622C120.098 26.766 120.326 26.868 120.602 26.928C120.89 26.976 121.232 27 121.628 27H122.798V25.65H122.096C121.856 25.65 121.658 25.644 121.502 25.632C121.358 25.608 121.244 25.566 121.16 25.506C121.076 25.446 121.016 25.362 120.98 25.254C120.956 25.146 120.944 25.002 120.944 24.822V19.044H122.798V17.694H120.944ZM125.614 22.356C125.614 21.792 125.686 21.294 125.83 20.862C125.986 20.418 126.196 20.046 126.46 19.746C126.724 19.446 127.03 19.218 127.378 19.062C127.738 18.906 128.116 18.828 128.512 18.828C128.908 18.828 129.28 18.906 129.628 19.062C129.988 19.218 130.3 19.446 130.564 19.746C130.828 20.046 131.032 20.418 131.176 20.862C131.332 21.294 131.41 21.792 131.41 22.356C131.41 22.92 131.332 23.424 131.176 23.868C131.032 24.3 130.828 24.666 130.564 24.966C130.3 25.254 129.988 25.476 129.628 25.632C129.28 25.788 128.908 25.866 128.512 25.866C128.116 25.866 127.738 25.788 127.378 25.632C127.03 25.476 126.724 25.254 126.46 24.966C126.196 24.666 125.986 24.3 125.83 23.868C125.686 23.424 125.614 22.92 125.614 22.356ZM123.994 22.356C123.994 23.04 124.09 23.676 124.282 24.264C124.474 24.852 124.762 25.368 125.146 25.812C125.53 26.244 126.004 26.586 126.568 26.838C127.132 27.078 127.78 27.198 128.512 27.198C129.256 27.198 129.904 27.078 130.456 26.838C131.02 26.586 131.494 26.244 131.878 25.812C132.262 25.368 132.55 24.852 132.742 24.264C132.934 23.676 133.03 23.04 133.03 22.356C133.03 21.672 132.934 21.036 132.742 20.448C132.55 19.848 132.262 19.332 131.878 18.9C131.494 18.456 131.02 18.108 130.456 17.856C129.904 17.604 129.256 17.478 128.512 17.478C127.78 17.478 127.132 17.604 126.568 17.856C126.004 18.108 125.53 18.456 125.146 18.9C124.762 19.332 124.474 19.848 124.282 20.448C124.09 21.036 123.994 21.672 123.994 22.356ZM134.924 14.148V27H136.454V23.472L137.894 22.14L141.08 27H143.024L139.064 21.078L142.754 17.694H140.702L136.454 21.762V14.148H134.924Z" fill="#4C4C66"/>
<g filter="url(#filter0_d)">
<rect x="25" y="19" width="8" height="8" rx="1" fill="url(#paint0_linear)"/>
</g>
<g filter="url(#filter1_d)">
<circle cx="33.5" cy="17.5" r="3.5" stroke="#6F6C99"/>
</g>
<defs>
<filter id="filter0_d" x="0" y="0" width="58" height="58" filterUnits="userSpaceOnUse" color-interpolation-filters="sRGB">
<feFlood flood-opacity="0" result="BackgroundImageFix"/>
<feColorMatrix in="SourceAlpha" type="matrix" values="0 0 0 0 0 0 0 0 0 0 0 0 0 0 0 0 0 0 127 0" result="hardAlpha"/>
<feOffset dy="6"/>
<feGaussianBlur stdDeviation="12.5"/>
<feColorMatrix type="matrix" values="0 0 0 0 0.602048 0 0 0 0 0.949963 0 0 0 0 0.930168 0 0 0 0.355129 0"/>
<feBlend mode="normal" in2="BackgroundImageFix" result="effect1_dropShadow"/>
<feBlend mode="normal" in="SourceGraphic" in2="effect1_dropShadow" result="shape"/>
</filter>
<filter id="filter1_d" x="20.5" y="10.5" width="26" height="26" filterUnits="userSpaceOnUse" color-interpolation-filters="sRGB">
<feFlood flood-opacity="0" result="BackgroundImageFix"/>
<feColorMatrix in="SourceAlpha" type="matrix" values="0 0 0 0 0 0 0 0 0 0 0 0 0 0 0 0 0 0 127 0" result="hardAlpha"/>
<feOffset dy="6"/>
<feGaussianBlur stdDeviation="4.5"/>
<feColorMatrix type="matrix" values="0 0 0 0 0.467047 0 0 0 0 0.435035 0 0 0 0 0.779167 0 0 0 1 0"/>
<feBlend mode="normal" in2="BackgroundImageFix" result="effect1_dropShadow"/>
<feBlend mode="normal" in="SourceGraphic" in2="effect1_dropShadow" result="shape"/>
</filter>
<linearGradient id="paint0_linear" x1="21.7405" y1="17" x2="17.7405" y2="31.5191" gradientUnits="userSpaceOnUse">
<stop stop-color="#86E3FF"/>
<stop offset="1" stop-color="#4CFA9D"/>
</linearGradient>
</defs>
</svg>
