<svg width="130" height="27" viewBox="0 0 130 27" fill="none" xmlns="http://www.w3.org/2000/svg">
<path d="M55.064 9.004H59.208C59.9733 9.004 60.636 9.13467 61.196 9.396C61.756 9.65733 62.2133 10.0167 62.568 10.474C62.9227 10.922 63.184 11.4493 63.352 12.056C63.5293 12.6627 63.618 13.3113 63.618 14.002C63.618 14.6927 63.5293 15.3413 63.352 15.948C63.184 16.5547 62.9227 17.0867 62.568 17.544C62.2133 17.992 61.756 18.3467 61.196 18.608C60.636 18.8693 59.9733 19 59.208 19H55.064V9.004ZM56.814 17.572H58.536C59.2173 17.572 59.7727 17.4833 60.202 17.306C60.6407 17.1193 60.9813 16.8673 61.224 16.55C61.476 16.2233 61.644 15.8453 61.728 15.416C61.8213 14.9773 61.868 14.506 61.868 14.002C61.868 13.498 61.8213 13.0313 61.728 12.602C61.644 12.1633 61.476 11.7853 61.224 11.468C60.9813 11.1413 60.6407 10.8893 60.202 10.712C59.7727 10.5253 59.2173 10.432 58.536 10.432H56.814V17.572ZM71.5055 17.39C71.5055 17.586 71.5288 17.726 71.5755 17.81C71.6315 17.894 71.7342 17.936 71.8835 17.936C71.9302 17.936 71.9862 17.936 72.0515 17.936C72.1168 17.936 72.1915 17.9267 72.2755 17.908V19.014C72.2195 19.0327 72.1448 19.0513 72.0515 19.07C71.9675 19.098 71.8788 19.1213 71.7855 19.14C71.6922 19.1587 71.5988 19.1727 71.5055 19.182C71.4122 19.1913 71.3328 19.196 71.2675 19.196C70.9408 19.196 70.6702 19.1307 70.4555 19C70.2408 18.8693 70.1008 18.6407 70.0355 18.314C69.7182 18.622 69.3262 18.846 68.8595 18.986C68.4022 19.126 67.9588 19.196 67.5295 19.196C67.2028 19.196 66.8902 19.1493 66.5915 19.056C66.2928 18.972 66.0268 18.846 65.7935 18.678C65.5695 18.5007 65.3875 18.2813 65.2475 18.02C65.1168 17.7493 65.0515 17.4367 65.0515 17.082C65.0515 16.634 65.1308 16.27 65.2895 15.99C65.4575 15.71 65.6722 15.4907 65.9335 15.332C66.2042 15.1733 66.5028 15.0613 66.8295 14.996C67.1655 14.9213 67.5015 14.8653 67.8375 14.828C68.1268 14.772 68.4022 14.7347 68.6635 14.716C68.9248 14.688 69.1535 14.646 69.3495 14.59C69.5548 14.534 69.7135 14.45 69.8255 14.338C69.9468 14.2167 70.0075 14.0393 70.0075 13.806C70.0075 13.6007 69.9562 13.4327 69.8535 13.302C69.7602 13.1713 69.6388 13.0733 69.4895 13.008C69.3495 12.9333 69.1908 12.8867 69.0135 12.868C68.8362 12.84 68.6682 12.826 68.5095 12.826C68.0615 12.826 67.6928 12.9193 67.4035 13.106C67.1142 13.2927 66.9508 13.582 66.9135 13.974H65.3175C65.3455 13.5073 65.4575 13.12 65.6535 12.812C65.8495 12.504 66.0968 12.2567 66.3955 12.07C66.7035 11.8833 67.0488 11.7527 67.4315 11.678C67.8142 11.6033 68.2062 11.566 68.6075 11.566C68.9622 11.566 69.3122 11.6033 69.6575 11.678C70.0028 11.7527 70.3108 11.874 70.5815 12.042C70.8615 12.21 71.0855 12.4293 71.2535 12.7C71.4215 12.9613 71.5055 13.2833 71.5055 13.666V17.39ZM69.9095 15.374C69.6668 15.5327 69.3682 15.6307 69.0135 15.668C68.6588 15.696 68.3042 15.7427 67.9495 15.808C67.7815 15.836 67.6182 15.878 67.4595 15.934C67.3008 15.9807 67.1608 16.0507 67.0395 16.144C66.9182 16.228 66.8202 16.3447 66.7455 16.494C66.6802 16.634 66.6475 16.8067 66.6475 17.012C66.6475 17.1893 66.6988 17.3387 66.8015 17.46C66.9042 17.5813 67.0255 17.6793 67.1655 17.754C67.3148 17.8193 67.4735 17.866 67.6415 17.894C67.8188 17.922 67.9775 17.936 68.1175 17.936C68.2948 17.936 68.4862 17.9127 68.6915 17.866C68.8968 17.8193 69.0882 17.74 69.2655 17.628C69.4522 17.516 69.6062 17.376 69.7275 17.208C69.8488 17.0307 69.9095 16.816 69.9095 16.564V15.374ZM74.9268 16.676C74.9735 17.1427 75.1508 17.4693 75.4588 17.656C75.7668 17.8427 76.1355 17.936 76.5648 17.936C76.7141 17.936 76.8821 17.9267 77.0688 17.908C77.2648 17.88 77.4468 17.8333 77.6148 17.768C77.7828 17.7027 77.9181 17.6093 78.0208 17.488C78.1328 17.3573 78.1841 17.1893 78.1748 16.984C78.1655 16.7787 78.0908 16.6107 77.9508 16.48C77.8108 16.3493 77.6288 16.2467 77.4048 16.172C77.1901 16.088 76.9428 16.018 76.6628 15.962C76.3828 15.906 76.0981 15.8453 75.8088 15.78C75.5101 15.7147 75.2208 15.6353 74.9408 15.542C74.6701 15.4487 74.4228 15.3227 74.1988 15.164C73.9841 15.0053 73.8115 14.8047 73.6808 14.562C73.5501 14.31 73.4848 14.002 73.4848 13.638C73.4848 13.246 73.5781 12.9193 73.7648 12.658C73.9608 12.3873 74.2035 12.1727 74.4928 12.014C74.7915 11.846 75.1181 11.7293 75.4728 11.664C75.8368 11.5987 76.1821 11.566 76.5088 11.566C76.8821 11.566 77.2368 11.608 77.5728 11.692C77.9181 11.7667 78.2261 11.8927 78.4968 12.07C78.7768 12.2473 79.0055 12.4807 79.1828 12.77C79.3695 13.05 79.4861 13.3907 79.5328 13.792H77.8668C77.7921 13.4093 77.6148 13.1527 77.3348 13.022C77.0641 12.8913 76.7515 12.826 76.3968 12.826C76.2848 12.826 76.1495 12.8353 75.9908 12.854C75.8415 12.8727 75.6968 12.91 75.5568 12.966C75.4261 13.0127 75.3141 13.0873 75.2208 13.19C75.1275 13.2833 75.0808 13.4093 75.0808 13.568C75.0808 13.764 75.1461 13.9227 75.2768 14.044C75.4168 14.1653 75.5941 14.268 75.8088 14.352C76.0328 14.4267 76.2848 14.492 76.5648 14.548C76.8448 14.604 77.1341 14.6647 77.4328 14.73C77.7221 14.7953 78.0068 14.8747 78.2868 14.968C78.5668 15.0613 78.8141 15.1873 79.0288 15.346C79.2528 15.5047 79.4301 15.7053 79.5608 15.948C79.7008 16.1907 79.7708 16.4893 79.7708 16.844C79.7708 17.2733 79.6728 17.6373 79.4768 17.936C79.2808 18.2347 79.0241 18.4773 78.7068 18.664C78.3988 18.8507 78.0535 18.986 77.6708 19.07C77.2881 19.154 76.9101 19.196 76.5368 19.196C76.0795 19.196 75.6548 19.1447 75.2628 19.042C74.8801 18.9393 74.5441 18.7853 74.2548 18.58C73.9748 18.3653 73.7508 18.104 73.5828 17.796C73.4241 17.4787 73.3401 17.1053 73.3308 16.676H74.9268ZM81.4826 9.004H83.0786V12.714H83.1066C83.3026 12.3873 83.5919 12.1167 83.9746 11.902C84.3666 11.678 84.8006 11.566 85.2766 11.566C86.0699 11.566 86.6952 11.7713 87.1526 12.182C87.6099 12.5927 87.8386 13.2087 87.8386 14.03V19H86.2426V14.45C86.2239 13.8807 86.1026 13.47 85.8786 13.218C85.6546 12.9567 85.3046 12.826 84.8286 12.826C84.5579 12.826 84.3152 12.8773 84.1006 12.98C83.8859 13.0733 83.7039 13.2087 83.5546 13.386C83.4052 13.554 83.2886 13.7547 83.2046 13.988C83.1206 14.2213 83.0786 14.4687 83.0786 14.73V19H81.4826V9.004ZM90.0636 9.004H91.6596V12.7H91.6876C91.7996 12.5227 91.935 12.364 92.0936 12.224C92.2523 12.084 92.425 11.9673 92.6116 11.874C92.8076 11.7713 93.0083 11.6967 93.2136 11.65C93.4283 11.594 93.6383 11.566 93.8436 11.566C94.413 11.566 94.9076 11.6687 95.3276 11.874C95.757 12.07 96.1116 12.3453 96.3916 12.7C96.6716 13.0453 96.8816 13.4513 97.0216 13.918C97.1616 14.3847 97.2316 14.884 97.2316 15.416C97.2316 15.9013 97.1663 16.3727 97.0356 16.83C96.9143 17.2873 96.723 17.6933 96.4616 18.048C96.2096 18.3933 95.8876 18.6733 95.4956 18.888C95.1036 19.0933 94.6416 19.196 94.1096 19.196C93.867 19.196 93.6196 19.1773 93.3676 19.14C93.125 19.112 92.8916 19.0513 92.6676 18.958C92.4436 18.8647 92.2383 18.7433 92.0516 18.594C91.8743 18.4447 91.725 18.2487 91.6036 18.006H91.5756V19H90.0636V9.004ZM95.6356 15.388C95.6356 15.0613 95.5936 14.744 95.5096 14.436C95.4256 14.128 95.2996 13.8573 95.1316 13.624C94.9636 13.3813 94.7536 13.19 94.5016 13.05C94.2496 12.9007 93.9603 12.826 93.6336 12.826C92.9616 12.826 92.453 13.0593 92.1076 13.526C91.7716 13.9927 91.6036 14.6133 91.6036 15.388C91.6036 15.752 91.6456 16.0927 91.7296 16.41C91.823 16.718 91.9583 16.984 92.1356 17.208C92.313 17.432 92.523 17.6093 92.7656 17.74C93.0176 17.8707 93.307 17.936 93.6336 17.936C93.9976 17.936 94.3056 17.8613 94.5576 17.712C94.8096 17.5627 95.015 17.3713 95.1736 17.138C95.3416 16.8953 95.4583 16.6247 95.5236 16.326C95.5983 16.018 95.6356 15.7053 95.6356 15.388ZM102.398 19.196C101.82 19.196 101.302 19.1027 100.844 18.916C100.396 18.72 100.014 18.454 99.6962 18.118C99.3882 17.782 99.1502 17.3807 98.9822 16.914C98.8236 16.4473 98.7442 15.934 98.7442 15.374C98.7442 14.8233 98.8236 14.3147 98.9822 13.848C99.1502 13.3813 99.3882 12.98 99.6962 12.644C100.014 12.308 100.396 12.0467 100.844 11.86C101.302 11.664 101.82 11.566 102.398 11.566C102.977 11.566 103.49 11.664 103.938 11.86C104.396 12.0467 104.778 12.308 105.086 12.644C105.404 12.98 105.642 13.3813 105.8 13.848C105.968 14.3147 106.052 14.8233 106.052 15.374C106.052 15.934 105.968 16.4473 105.8 16.914C105.642 17.3807 105.404 17.782 105.086 18.118C104.778 18.454 104.396 18.72 103.938 18.916C103.49 19.1027 102.977 19.196 102.398 19.196ZM102.398 17.936C102.753 17.936 103.061 17.8613 103.322 17.712C103.584 17.5627 103.798 17.3667 103.966 17.124C104.134 16.8813 104.256 16.6107 104.33 16.312C104.414 16.004 104.456 15.6913 104.456 15.374C104.456 15.066 104.414 14.758 104.33 14.45C104.256 14.142 104.134 13.8713 103.966 13.638C103.798 13.3953 103.584 13.1993 103.322 13.05C103.061 12.9007 102.753 12.826 102.398 12.826C102.044 12.826 101.736 12.9007 101.474 13.05C101.213 13.1993 100.998 13.3953 100.83 13.638C100.662 13.8713 100.536 14.142 100.452 14.45C100.378 14.758 100.34 15.066 100.34 15.374C100.34 15.6913 100.378 16.004 100.452 16.312C100.536 16.6107 100.662 16.8813 100.83 17.124C100.998 17.3667 101.213 17.5627 101.474 17.712C101.736 17.8613 102.044 17.936 102.398 17.936ZM113.941 17.39C113.941 17.586 113.964 17.726 114.011 17.81C114.067 17.894 114.17 17.936 114.319 17.936C114.366 17.936 114.422 17.936 114.487 17.936C114.552 17.936 114.627 17.9267 114.711 17.908V19.014C114.655 19.0327 114.58 19.0513 114.487 19.07C114.403 19.098 114.314 19.1213 114.221 19.14C114.128 19.1587 114.034 19.1727 113.941 19.182C113.848 19.1913 113.768 19.196 113.703 19.196C113.376 19.196 113.106 19.1307 112.891 19C112.676 18.8693 112.536 18.6407 112.471 18.314C112.154 18.622 111.762 18.846 111.295 18.986C110.838 19.126 110.394 19.196 109.965 19.196C109.638 19.196 109.326 19.1493 109.027 19.056C108.728 18.972 108.462 18.846 108.229 18.678C108.005 18.5007 107.823 18.2813 107.683 18.02C107.552 17.7493 107.487 17.4367 107.487 17.082C107.487 16.634 107.566 16.27 107.725 15.99C107.893 15.71 108.108 15.4907 108.369 15.332C108.64 15.1733 108.938 15.0613 109.265 14.996C109.601 14.9213 109.937 14.8653 110.273 14.828C110.562 14.772 110.838 14.7347 111.099 14.716C111.36 14.688 111.589 14.646 111.785 14.59C111.99 14.534 112.149 14.45 112.261 14.338C112.382 14.2167 112.443 14.0393 112.443 13.806C112.443 13.6007 112.392 13.4327 112.289 13.302C112.196 13.1713 112.074 13.0733 111.925 13.008C111.785 12.9333 111.626 12.8867 111.449 12.868C111.272 12.84 111.104 12.826 110.945 12.826C110.497 12.826 110.128 12.9193 109.839 13.106C109.55 13.2927 109.386 13.582 109.349 13.974H107.753C107.781 13.5073 107.893 13.12 108.089 12.812C108.285 12.504 108.532 12.2567 108.831 12.07C109.139 11.8833 109.484 11.7527 109.867 11.678C110.25 11.6033 110.642 11.566 111.043 11.566C111.398 11.566 111.748 11.6033 112.093 11.678C112.438 11.7527 112.746 11.874 113.017 12.042C113.297 12.21 113.521 12.4293 113.689 12.7C113.857 12.9613 113.941 13.2833 113.941 13.666V17.39ZM112.345 15.374C112.102 15.5327 111.804 15.6307 111.449 15.668C111.094 15.696 110.74 15.7427 110.385 15.808C110.217 15.836 110.054 15.878 109.895 15.934C109.736 15.9807 109.596 16.0507 109.475 16.144C109.354 16.228 109.256 16.3447 109.181 16.494C109.116 16.634 109.083 16.8067 109.083 17.012C109.083 17.1893 109.134 17.3387 109.237 17.46C109.34 17.5813 109.461 17.6793 109.601 17.754C109.75 17.8193 109.909 17.866 110.077 17.894C110.254 17.922 110.413 17.936 110.553 17.936C110.73 17.936 110.922 17.9127 111.127 17.866C111.332 17.8193 111.524 17.74 111.701 17.628C111.888 17.516 112.042 17.376 112.163 17.208C112.284 17.0307 112.345 16.816 112.345 16.564V15.374ZM116.158 11.762H117.656V13.162H117.684C117.731 12.966 117.82 12.7747 117.95 12.588C118.09 12.4013 118.254 12.2333 118.44 12.084C118.636 11.9253 118.851 11.7993 119.084 11.706C119.318 11.6127 119.556 11.566 119.798 11.566C119.985 11.566 120.111 11.5707 120.176 11.58C120.251 11.5893 120.326 11.5987 120.4 11.608V13.148C120.288 13.1293 120.172 13.1153 120.05 13.106C119.938 13.0873 119.826 13.078 119.714 13.078C119.444 13.078 119.187 13.134 118.944 13.246C118.711 13.3487 118.506 13.5073 118.328 13.722C118.151 13.9273 118.011 14.184 117.908 14.492C117.806 14.8 117.754 15.1547 117.754 15.556V19H116.158V11.762ZM128.398 19H126.886V18.02H126.858C126.644 18.44 126.331 18.7433 125.92 18.93C125.51 19.1073 125.076 19.196 124.618 19.196C124.049 19.196 123.55 19.098 123.12 18.902C122.7 18.6967 122.35 18.4213 122.07 18.076C121.79 17.7307 121.58 17.3247 121.44 16.858C121.3 16.382 121.23 15.8733 121.23 15.332C121.23 14.6787 121.319 14.114 121.496 13.638C121.674 13.162 121.907 12.77 122.196 12.462C122.495 12.154 122.831 11.93 123.204 11.79C123.587 11.6407 123.974 11.566 124.366 11.566C124.59 11.566 124.819 11.5893 125.052 11.636C125.286 11.6733 125.51 11.7387 125.724 11.832C125.939 11.9253 126.135 12.0467 126.312 12.196C126.499 12.336 126.653 12.504 126.774 12.7H126.802V9.004H128.398V19ZM122.826 15.458C122.826 15.766 122.864 16.0693 122.938 16.368C123.022 16.6667 123.144 16.9327 123.302 17.166C123.47 17.3993 123.68 17.586 123.932 17.726C124.184 17.866 124.483 17.936 124.828 17.936C125.183 17.936 125.486 17.8613 125.738 17.712C126 17.5627 126.21 17.3667 126.368 17.124C126.536 16.8813 126.658 16.6107 126.732 16.312C126.816 16.004 126.858 15.6913 126.858 15.374C126.858 14.5713 126.676 13.946 126.312 13.498C125.958 13.05 125.472 12.826 124.856 12.826C124.483 12.826 124.166 12.9053 123.904 13.064C123.652 13.2133 123.442 13.414 123.274 13.666C123.116 13.9087 122.999 14.1887 122.924 14.506C122.859 14.814 122.826 15.1313 122.826 15.458Z" fill="#53B9EA"/>
<rect x="7.10529" y="7.10529" width="4" height="4" rx="1.4" fill="#53B9EA"/>
<rect x="7.10529" y="13.1053" width="4" height="4" rx="1.4" fill="#53B9EA"/>
<rect x="13.1053" y="7.10529" width="4" height="4" rx="1.4" fill="#53B9EA"/>
<rect x="13.1053" y="13.1053" width="7" height="7" rx="1.4" fill="#53B9EA"/>
</svg>
