<svg width="221" height="46" viewBox="0 0 221 46" fill="none" xmlns="http://www.w3.org/2000/svg">
<path d="M55.12 18.004V28H56.38V19.684H56.408L59.53 28H60.664L63.786 19.684H63.814V28H65.074V18.004H63.254L60.09 26.404L56.94 18.004H55.12ZM72.6173 23.688H68.4593C68.478 23.408 68.5386 23.1467 68.6413 22.904C68.744 22.652 68.884 22.4327 69.0613 22.246C69.2386 22.0593 69.4486 21.9147 69.6913 21.812C69.9433 21.7 70.2233 21.644 70.5313 21.644C70.83 21.644 71.1006 21.7 71.3433 21.812C71.5953 21.9147 71.81 22.0593 71.9873 22.246C72.174 22.4233 72.3186 22.638 72.4213 22.89C72.5333 23.142 72.5986 23.408 72.6173 23.688ZM73.7653 25.704H72.5893C72.4866 26.18 72.272 26.5347 71.9453 26.768C71.628 27.0013 71.2173 27.118 70.7133 27.118C70.3213 27.118 69.9806 27.0527 69.6913 26.922C69.402 26.7913 69.164 26.6187 68.9773 26.404C68.7906 26.18 68.6553 25.928 68.5713 25.648C68.4873 25.3587 68.45 25.0553 68.4593 24.738H73.8773C73.896 24.2993 73.854 23.8373 73.7513 23.352C73.658 22.8667 73.4806 22.4187 73.2193 22.008C72.9673 21.5973 72.6266 21.2613 72.1973 21C71.7773 20.7293 71.2453 20.594 70.6013 20.594C70.1066 20.594 69.6493 20.6873 69.2293 20.874C68.8186 21.0607 68.4593 21.322 68.1513 21.658C67.8526 21.994 67.6193 22.3907 67.4513 22.848C67.2833 23.3053 67.1993 23.8093 67.1993 24.36C67.218 24.9107 67.2973 25.4193 67.4373 25.886C67.5866 26.3527 67.806 26.754 68.0953 27.09C68.3846 27.426 68.7393 27.6873 69.1593 27.874C69.5886 28.0607 70.0926 28.154 70.6713 28.154C71.4926 28.154 72.174 27.9487 72.7153 27.538C73.2566 27.1273 73.6066 26.516 73.7653 25.704ZM76.3388 25.718H75.1488C75.1675 26.166 75.2608 26.5487 75.4288 26.866C75.5968 27.174 75.8208 27.426 76.1008 27.622C76.3808 27.8087 76.7028 27.944 77.0668 28.028C77.4308 28.112 77.8135 28.154 78.2148 28.154C78.5788 28.154 78.9428 28.1167 79.3068 28.042C79.6802 27.9767 80.0115 27.8553 80.3008 27.678C80.5995 27.5007 80.8375 27.2673 81.0148 26.978C81.2015 26.6887 81.2948 26.3247 81.2948 25.886C81.2948 25.5407 81.2248 25.2513 81.0848 25.018C80.9542 24.7847 80.7768 24.5933 80.5528 24.444C80.3382 24.2853 80.0862 24.1593 79.7968 24.066C79.5168 23.9727 79.2275 23.8933 78.9288 23.828C78.6488 23.7627 78.3688 23.702 78.0888 23.646C77.8088 23.5807 77.5568 23.506 77.3328 23.422C77.1088 23.3287 76.9222 23.2167 76.7728 23.086C76.6328 22.946 76.5628 22.7733 76.5628 22.568C76.5628 22.3813 76.6095 22.232 76.7028 22.12C76.7962 21.9987 76.9175 21.9053 77.0668 21.84C77.2162 21.7653 77.3795 21.714 77.5568 21.686C77.7435 21.658 77.9255 21.644 78.1028 21.644C78.2988 21.644 78.4902 21.6673 78.6768 21.714C78.8728 21.7513 79.0502 21.8167 79.2088 21.91C79.3675 22.0033 79.4982 22.1293 79.6008 22.288C79.7035 22.4373 79.7642 22.6287 79.7828 22.862H80.9728C80.9448 22.4233 80.8515 22.0593 80.6928 21.77C80.5342 21.4713 80.3195 21.238 80.0488 21.07C79.7875 20.8927 79.4842 20.7713 79.1388 20.706C78.7935 20.6313 78.4155 20.594 78.0048 20.594C77.6875 20.594 77.3655 20.636 77.0388 20.72C76.7215 20.7947 76.4322 20.916 76.1708 21.084C75.9188 21.2427 75.7088 21.4527 75.5408 21.714C75.3822 21.9753 75.3028 22.288 75.3028 22.652C75.3028 23.1187 75.4195 23.4827 75.6528 23.744C75.8862 24.0053 76.1755 24.2107 76.5208 24.36C76.8755 24.5 77.2582 24.612 77.6688 24.696C78.0795 24.7707 78.4575 24.8593 78.8028 24.962C79.1575 25.0553 79.4515 25.1813 79.6848 25.34C79.9182 25.4987 80.0348 25.732 80.0348 26.04C80.0348 26.264 79.9788 26.4507 79.8668 26.6C79.7548 26.74 79.6102 26.8473 79.4328 26.922C79.2648 26.9967 79.0782 27.048 78.8728 27.076C78.6675 27.104 78.4715 27.118 78.2848 27.118C78.0422 27.118 77.8042 27.0947 77.5708 27.048C77.3468 27.0013 77.1415 26.9267 76.9548 26.824C76.7775 26.712 76.6328 26.5673 76.5208 26.39C76.4088 26.2033 76.3482 25.9793 76.3388 25.718ZM83.8388 25.718H82.6488C82.6675 26.166 82.7608 26.5487 82.9288 26.866C83.0968 27.174 83.3208 27.426 83.6008 27.622C83.8808 27.8087 84.2028 27.944 84.5668 28.028C84.9308 28.112 85.3135 28.154 85.7148 28.154C86.0788 28.154 86.4428 28.1167 86.8068 28.042C87.1802 27.9767 87.5115 27.8553 87.8008 27.678C88.0995 27.5007 88.3375 27.2673 88.5148 26.978C88.7015 26.6887 88.7948 26.3247 88.7948 25.886C88.7948 25.5407 88.7248 25.2513 88.5848 25.018C88.4542 24.7847 88.2768 24.5933 88.0528 24.444C87.8382 24.2853 87.5862 24.1593 87.2968 24.066C87.0168 23.9727 86.7275 23.8933 86.4288 23.828C86.1488 23.7627 85.8688 23.702 85.5888 23.646C85.3088 23.5807 85.0568 23.506 84.8328 23.422C84.6088 23.3287 84.4222 23.2167 84.2728 23.086C84.1328 22.946 84.0628 22.7733 84.0628 22.568C84.0628 22.3813 84.1095 22.232 84.2028 22.12C84.2962 21.9987 84.4175 21.9053 84.5668 21.84C84.7162 21.7653 84.8795 21.714 85.0568 21.686C85.2435 21.658 85.4255 21.644 85.6028 21.644C85.7988 21.644 85.9902 21.6673 86.1768 21.714C86.3728 21.7513 86.5502 21.8167 86.7088 21.91C86.8675 22.0033 86.9982 22.1293 87.1008 22.288C87.2035 22.4373 87.2642 22.6287 87.2828 22.862H88.4728C88.4448 22.4233 88.3515 22.0593 88.1928 21.77C88.0342 21.4713 87.8195 21.238 87.5488 21.07C87.2875 20.8927 86.9842 20.7713 86.6388 20.706C86.2935 20.6313 85.9155 20.594 85.5048 20.594C85.1875 20.594 84.8655 20.636 84.5388 20.72C84.2215 20.7947 83.9322 20.916 83.6708 21.084C83.4188 21.2427 83.2088 21.4527 83.0408 21.714C82.8822 21.9753 82.8028 22.288 82.8028 22.652C82.8028 23.1187 82.9195 23.4827 83.1528 23.744C83.3862 24.0053 83.6755 24.2107 84.0208 24.36C84.3755 24.5 84.7582 24.612 85.1688 24.696C85.5795 24.7707 85.9575 24.8593 86.3028 24.962C86.6575 25.0553 86.9515 25.1813 87.1848 25.34C87.4182 25.4987 87.5348 25.732 87.5348 26.04C87.5348 26.264 87.4788 26.4507 87.3668 26.6C87.2548 26.74 87.1102 26.8473 86.9328 26.922C86.7648 26.9967 86.5782 27.048 86.3728 27.076C86.1675 27.104 85.9715 27.118 85.7848 27.118C85.5422 27.118 85.3042 27.0947 85.0708 27.048C84.8468 27.0013 84.6415 26.9267 84.4548 26.824C84.2775 26.712 84.1328 26.5673 84.0208 26.39C83.9088 26.2033 83.8482 25.9793 83.8388 25.718ZM97.0228 27.972C96.8175 28.0933 96.5328 28.154 96.1688 28.154C95.8608 28.154 95.6135 28.07 95.4268 27.902C95.2495 27.7247 95.1608 27.44 95.1608 27.048C94.8342 27.44 94.4515 27.7247 94.0128 27.902C93.5835 28.07 93.1168 28.154 92.6128 28.154C92.2862 28.154 91.9735 28.1167 91.6748 28.042C91.3855 27.9673 91.1335 27.8507 90.9188 27.692C90.7042 27.5333 90.5315 27.328 90.4008 27.076C90.2795 26.8147 90.2188 26.502 90.2188 26.138C90.2188 25.7273 90.2888 25.3913 90.4288 25.13C90.5688 24.8687 90.7508 24.6587 90.9748 24.5C91.2082 24.332 91.4695 24.206 91.7588 24.122C92.0575 24.038 92.3608 23.968 92.6688 23.912C92.9955 23.8467 93.3035 23.8 93.5928 23.772C93.8915 23.7347 94.1528 23.688 94.3768 23.632C94.6008 23.5667 94.7782 23.478 94.9088 23.366C95.0395 23.2447 95.1048 23.072 95.1048 22.848C95.1048 22.5867 95.0535 22.3767 94.9508 22.218C94.8575 22.0593 94.7315 21.938 94.5728 21.854C94.4235 21.77 94.2508 21.714 94.0548 21.686C93.8682 21.658 93.6815 21.644 93.4948 21.644C92.9908 21.644 92.5708 21.742 92.2348 21.938C91.8988 22.1247 91.7168 22.484 91.6888 23.016H90.4988C90.5175 22.568 90.6108 22.19 90.7788 21.882C90.9468 21.574 91.1708 21.3267 91.4508 21.14C91.7308 20.944 92.0482 20.804 92.4028 20.72C92.7668 20.636 93.1542 20.594 93.5648 20.594C93.8915 20.594 94.2135 20.6173 94.5308 20.664C94.8575 20.7107 95.1515 20.8087 95.4128 20.958C95.6742 21.098 95.8842 21.2987 96.0428 21.56C96.2015 21.8213 96.2808 22.162 96.2808 22.582V26.306C96.2808 26.586 96.2948 26.7913 96.3228 26.922C96.3602 27.0527 96.4722 27.118 96.6588 27.118C96.7615 27.118 96.8828 27.0947 97.0228 27.048V27.972ZM95.0908 24.262C94.9415 24.374 94.7455 24.458 94.5028 24.514C94.2602 24.5607 94.0035 24.6027 93.7328 24.64C93.4715 24.668 93.2055 24.7053 92.9348 24.752C92.6642 24.7893 92.4215 24.8547 92.2068 24.948C91.9922 25.0413 91.8148 25.1767 91.6748 25.354C91.5442 25.522 91.4788 25.7553 91.4788 26.054C91.4788 26.25 91.5162 26.418 91.5908 26.558C91.6748 26.6887 91.7775 26.796 91.8988 26.88C92.0295 26.964 92.1788 27.0247 92.3468 27.062C92.5148 27.0993 92.6922 27.118 92.8788 27.118C93.2708 27.118 93.6068 27.0667 93.8868 26.964C94.1668 26.852 94.3955 26.7167 94.5728 26.558C94.7502 26.39 94.8808 26.2127 94.9648 26.026C95.0488 25.83 95.0908 25.648 95.0908 25.48V24.262ZM104.874 27.384V20.762H103.754V21.798H103.74C103.526 21.3967 103.227 21.098 102.844 20.902C102.462 20.6967 102.042 20.594 101.584 20.594C100.959 20.594 100.432 20.7153 100.002 20.958C99.573 21.1913 99.2277 21.4947 98.9664 21.868C98.705 22.232 98.5184 22.6427 98.4064 23.1C98.2944 23.548 98.2384 23.9867 98.2384 24.416C98.2384 24.9107 98.3037 25.382 98.4344 25.83C98.5744 26.2687 98.7797 26.656 99.0504 26.992C99.321 27.3187 99.657 27.58 100.058 27.776C100.46 27.972 100.931 28.07 101.472 28.07C101.939 28.07 102.378 27.9673 102.788 27.762C103.208 27.5473 103.521 27.216 103.726 26.768H103.754V27.244C103.754 27.6453 103.712 28.014 103.628 28.35C103.554 28.686 103.428 28.9707 103.25 29.204C103.073 29.4467 102.849 29.6333 102.578 29.764C102.308 29.904 101.976 29.974 101.584 29.974C101.388 29.974 101.183 29.9507 100.968 29.904C100.754 29.8667 100.553 29.8013 100.366 29.708C100.189 29.6147 100.035 29.4933 99.9044 29.344C99.783 29.1947 99.7177 29.0127 99.7084 28.798H98.5184C98.537 29.19 98.6397 29.5213 98.8264 29.792C99.013 30.0627 99.2464 30.282 99.5264 30.45C99.8157 30.618 100.133 30.7393 100.478 30.814C100.833 30.8887 101.178 30.926 101.514 30.926C102.672 30.926 103.521 30.632 104.062 30.044C104.604 29.456 104.874 28.5693 104.874 27.384ZM101.542 27.034C101.15 27.034 100.824 26.9547 100.562 26.796C100.301 26.628 100.091 26.4133 99.9324 26.152C99.7737 25.8813 99.6617 25.5827 99.5964 25.256C99.531 24.9293 99.4984 24.6027 99.4984 24.276C99.4984 23.9307 99.5357 23.5993 99.6104 23.282C99.6944 22.9647 99.8204 22.6847 99.9884 22.442C100.166 22.1993 100.39 22.008 100.66 21.868C100.931 21.7187 101.258 21.644 101.64 21.644C102.014 21.644 102.331 21.7187 102.592 21.868C102.854 22.0173 103.064 22.218 103.222 22.47C103.39 22.7127 103.512 22.988 103.586 23.296C103.661 23.604 103.698 23.9167 103.698 24.234C103.698 24.57 103.656 24.906 103.572 25.242C103.498 25.578 103.376 25.8813 103.208 26.152C103.04 26.4133 102.816 26.628 102.536 26.796C102.266 26.9547 101.934 27.034 101.542 27.034ZM112.195 23.688H108.037C108.056 23.408 108.117 23.1467 108.219 22.904C108.322 22.652 108.462 22.4327 108.639 22.246C108.817 22.0593 109.027 21.9147 109.269 21.812C109.521 21.7 109.801 21.644 110.109 21.644C110.408 21.644 110.679 21.7 110.921 21.812C111.173 21.9147 111.388 22.0593 111.565 22.246C111.752 22.4233 111.897 22.638 111.999 22.89C112.111 23.142 112.177 23.408 112.195 23.688ZM113.343 25.704H112.167C112.065 26.18 111.85 26.5347 111.523 26.768C111.206 27.0013 110.795 27.118 110.291 27.118C109.899 27.118 109.559 27.0527 109.269 26.922C108.98 26.7913 108.742 26.6187 108.555 26.404C108.369 26.18 108.233 25.928 108.149 25.648C108.065 25.3587 108.028 25.0553 108.037 24.738H113.455C113.474 24.2993 113.432 23.8373 113.329 23.352C113.236 22.8667 113.059 22.4187 112.797 22.008C112.545 21.5973 112.205 21.2613 111.775 21C111.355 20.7293 110.823 20.594 110.179 20.594C109.685 20.594 109.227 20.6873 108.807 20.874C108.397 21.0607 108.037 21.322 107.729 21.658C107.431 21.994 107.197 22.3907 107.029 22.848C106.861 23.3053 106.777 23.8093 106.777 24.36C106.796 24.9107 106.875 25.4193 107.015 25.886C107.165 26.3527 107.384 26.754 107.673 27.09C107.963 27.426 108.317 27.6873 108.737 27.874C109.167 28.0607 109.671 28.154 110.249 28.154C111.071 28.154 111.752 27.9487 112.293 27.538C112.835 27.1273 113.185 26.516 113.343 25.704ZM115.917 25.718H114.727C114.746 26.166 114.839 26.5487 115.007 26.866C115.175 27.174 115.399 27.426 115.679 27.622C115.959 27.8087 116.281 27.944 116.645 28.028C117.009 28.112 117.392 28.154 117.793 28.154C118.157 28.154 118.521 28.1167 118.885 28.042C119.258 27.9767 119.59 27.8553 119.879 27.678C120.178 27.5007 120.416 27.2673 120.593 26.978C120.78 26.6887 120.873 26.3247 120.873 25.886C120.873 25.5407 120.803 25.2513 120.663 25.018C120.532 24.7847 120.355 24.5933 120.131 24.444C119.916 24.2853 119.664 24.1593 119.375 24.066C119.095 23.9727 118.806 23.8933 118.507 23.828C118.227 23.7627 117.947 23.702 117.667 23.646C117.387 23.5807 117.135 23.506 116.911 23.422C116.687 23.3287 116.5 23.2167 116.351 23.086C116.211 22.946 116.141 22.7733 116.141 22.568C116.141 22.3813 116.188 22.232 116.281 22.12C116.374 21.9987 116.496 21.9053 116.645 21.84C116.794 21.7653 116.958 21.714 117.135 21.686C117.322 21.658 117.504 21.644 117.681 21.644C117.877 21.644 118.068 21.6673 118.255 21.714C118.451 21.7513 118.628 21.8167 118.787 21.91C118.946 22.0033 119.076 22.1293 119.179 22.288C119.282 22.4373 119.342 22.6287 119.361 22.862H120.551C120.523 22.4233 120.43 22.0593 120.271 21.77C120.112 21.4713 119.898 21.238 119.627 21.07C119.366 20.8927 119.062 20.7713 118.717 20.706C118.372 20.6313 117.994 20.594 117.583 20.594C117.266 20.594 116.944 20.636 116.617 20.72C116.3 20.7947 116.01 20.916 115.749 21.084C115.497 21.2427 115.287 21.4527 115.119 21.714C114.96 21.9753 114.881 22.288 114.881 22.652C114.881 23.1187 114.998 23.4827 115.231 23.744C115.464 24.0053 115.754 24.2107 116.099 24.36C116.454 24.5 116.836 24.612 117.247 24.696C117.658 24.7707 118.036 24.8593 118.381 24.962C118.736 25.0553 119.03 25.1813 119.263 25.34C119.496 25.4987 119.613 25.732 119.613 26.04C119.613 26.264 119.557 26.4507 119.445 26.6C119.333 26.74 119.188 26.8473 119.011 26.922C118.843 26.9967 118.656 27.048 118.451 27.076C118.246 27.104 118.05 27.118 117.863 27.118C117.62 27.118 117.382 27.0947 117.149 27.048C116.925 27.0013 116.72 26.9267 116.533 26.824C116.356 26.712 116.211 26.5673 116.099 26.39C115.987 26.2033 115.926 25.9793 115.917 25.718Z" fill="#6F6C99"/>
<g opacity="0.8" filter="url(#filter0_d)">
<circle cx="198" cy="23" r="3" fill="url(#paint0_linear)"/>
</g>
<path fill-rule="evenodd" clip-rule="evenodd" d="M19.3229 17.9597C19.5817 17.1833 18.843 16.4445 18.0665 16.7034L8.1618 20.0049C7.46133 20.2384 7.25146 21.1275 7.77357 21.6496L10.0665 23.9425L14.3028 21.7235L12.0838 25.9598L14.3767 28.2527C14.8988 28.7748 15.7878 28.5649 16.0213 27.8645L19.3229 17.9597Z" fill="#6F6C99"/>
<circle cx="8.5" cy="27.5" r="1.5" fill="#6F6C99"/>
<defs>
<filter id="filter0_d" x="175" y="0" width="46" height="46" filterUnits="userSpaceOnUse" color-interpolation-filters="sRGB">
<feFlood flood-opacity="0" result="BackgroundImageFix"/>
<feColorMatrix in="SourceAlpha" type="matrix" values="0 0 0 0 0 0 0 0 0 0 0 0 0 0 0 0 0 0 127 0" result="hardAlpha"/>
<feOffset/>
<feGaussianBlur stdDeviation="10"/>
<feColorMatrix type="matrix" values="0 0 0 0 0.879001 0 0 0 0 0.0611469 0 0 0 0 0.399928 0 0 0 1 0"/>
<feBlend mode="normal" in2="BackgroundImageFix" result="effect1_dropShadow"/>
<feBlend mode="normal" in="SourceGraphic" in2="effect1_dropShadow" result="shape"/>
</filter>
<linearGradient id="paint0_linear" x1="195" y1="20" x2="195" y2="26" gradientUnits="userSpaceOnUse">
<stop stop-color="#FF40A5"/>
<stop offset="1" stop-color="#E14CD1"/>
</linearGradient>
</defs>
</svg>
