<svg width="91" height="27" viewBox="0 0 91 27" fill="none" xmlns="http://www.w3.org/2000/svg">
<path d="M57.36 10.124V19H58.69V10.124H62.022V9.004H54.028V10.124H57.36ZM62.1079 11.762V19H63.2979V15.78C63.2979 15.3133 63.3446 14.9027 63.4379 14.548C63.5312 14.184 63.6806 13.876 63.8859 13.624C64.0912 13.372 64.3619 13.1807 64.6979 13.05C65.0339 12.9193 65.4399 12.854 65.9159 12.854V11.594C65.2719 11.5753 64.7399 11.706 64.3199 11.986C63.8999 12.266 63.5452 12.7 63.2559 13.288H63.2279V11.762H62.1079ZM73.724 18.972C73.5187 19.0933 73.234 19.154 72.87 19.154C72.562 19.154 72.3147 19.07 72.128 18.902C71.9507 18.7247 71.862 18.44 71.862 18.048C71.5353 18.44 71.1527 18.7247 70.714 18.902C70.2847 19.07 69.818 19.154 69.314 19.154C68.9873 19.154 68.6747 19.1167 68.376 19.042C68.0867 18.9673 67.8347 18.8507 67.62 18.692C67.4053 18.5333 67.2327 18.328 67.102 18.076C66.9807 17.8147 66.92 17.502 66.92 17.138C66.92 16.7273 66.99 16.3913 67.13 16.13C67.27 15.8687 67.452 15.6587 67.676 15.5C67.9093 15.332 68.1707 15.206 68.46 15.122C68.7587 15.038 69.062 14.968 69.37 14.912C69.6967 14.8467 70.0047 14.8 70.294 14.772C70.5927 14.7347 70.854 14.688 71.078 14.632C71.302 14.5667 71.4793 14.478 71.61 14.366C71.7407 14.2447 71.806 14.072 71.806 13.848C71.806 13.5867 71.7547 13.3767 71.652 13.218C71.5587 13.0593 71.4327 12.938 71.274 12.854C71.1247 12.77 70.952 12.714 70.756 12.686C70.5693 12.658 70.3827 12.644 70.196 12.644C69.692 12.644 69.272 12.742 68.936 12.938C68.6 13.1247 68.418 13.484 68.39 14.016H67.2C67.2187 13.568 67.312 13.19 67.48 12.882C67.648 12.574 67.872 12.3267 68.152 12.14C68.432 11.944 68.7493 11.804 69.104 11.72C69.468 11.636 69.8553 11.594 70.266 11.594C70.5927 11.594 70.9147 11.6173 71.232 11.664C71.5587 11.7107 71.8527 11.8087 72.114 11.958C72.3753 12.098 72.5853 12.2987 72.744 12.56C72.9027 12.8213 72.982 13.162 72.982 13.582V17.306C72.982 17.586 72.996 17.7913 73.024 17.922C73.0613 18.0527 73.1733 18.118 73.36 18.118C73.4627 18.118 73.584 18.0947 73.724 18.048V18.972ZM71.792 15.262C71.6427 15.374 71.4467 15.458 71.204 15.514C70.9613 15.5607 70.7047 15.6027 70.434 15.64C70.1727 15.668 69.9067 15.7053 69.636 15.752C69.3653 15.7893 69.1227 15.8547 68.908 15.948C68.6933 16.0413 68.516 16.1767 68.376 16.354C68.2453 16.522 68.18 16.7553 68.18 17.054C68.18 17.25 68.2173 17.418 68.292 17.558C68.376 17.6887 68.4787 17.796 68.6 17.88C68.7307 17.964 68.88 18.0247 69.048 18.062C69.216 18.0993 69.3933 18.118 69.58 18.118C69.972 18.118 70.308 18.0667 70.588 17.964C70.868 17.852 71.0967 17.7167 71.274 17.558C71.4513 17.39 71.582 17.2127 71.666 17.026C71.75 16.83 71.792 16.648 71.792 16.48V15.262ZM76.1995 15.444C76.1995 15.0893 76.2369 14.744 76.3115 14.408C76.3862 14.072 76.5075 13.7733 76.6755 13.512C76.8435 13.2507 77.0675 13.0407 77.3475 12.882C77.6275 12.7233 77.9682 12.644 78.3695 12.644C78.7802 12.644 79.1302 12.7233 79.4195 12.882C79.7089 13.0313 79.9422 13.232 80.1195 13.484C80.3062 13.736 80.4415 14.03 80.5255 14.366C80.6095 14.6927 80.6515 15.0333 80.6515 15.388C80.6515 15.724 80.6095 16.0553 80.5255 16.382C80.4509 16.7087 80.3249 17.0027 80.1475 17.264C79.9702 17.516 79.7415 17.7213 79.4615 17.88C79.1815 18.0387 78.8409 18.118 78.4395 18.118C78.0569 18.118 77.7209 18.0433 77.4315 17.894C77.1515 17.7447 76.9182 17.544 76.7315 17.292C76.5542 17.04 76.4189 16.7553 76.3255 16.438C76.2415 16.1113 76.1995 15.78 76.1995 15.444ZM81.7995 19V9.004H80.6095V12.728H80.5815C80.4509 12.5133 80.2875 12.336 80.0915 12.196C79.9049 12.0467 79.7042 11.93 79.4895 11.846C79.2749 11.7527 79.0602 11.6873 78.8455 11.65C78.6309 11.6127 78.4302 11.594 78.2435 11.594C77.6929 11.594 77.2075 11.6967 76.7875 11.902C76.3769 12.098 76.0315 12.3687 75.7515 12.714C75.4809 13.05 75.2755 13.4467 75.1355 13.904C75.0049 14.3613 74.9395 14.8467 74.9395 15.36C74.9395 15.8733 75.0095 16.3587 75.1495 16.816C75.2895 17.2733 75.4949 17.6747 75.7655 18.02C76.0455 18.3653 76.3909 18.6407 76.8015 18.846C77.2215 19.0513 77.7115 19.154 78.2715 19.154C78.7755 19.154 79.2375 19.0653 79.6575 18.888C80.0775 18.7107 80.3855 18.4213 80.5815 18.02H80.6095V19H81.7995ZM89.1564 14.688H84.9984C85.017 14.408 85.0777 14.1467 85.1804 13.904C85.283 13.652 85.423 13.4327 85.6004 13.246C85.7777 13.0593 85.9877 12.9147 86.2304 12.812C86.4824 12.7 86.7624 12.644 87.0704 12.644C87.369 12.644 87.6397 12.7 87.8824 12.812C88.1344 12.9147 88.349 13.0593 88.5264 13.246C88.713 13.4233 88.8577 13.638 88.9604 13.89C89.0724 14.142 89.1377 14.408 89.1564 14.688ZM90.3044 16.704H89.1284C89.0257 17.18 88.811 17.5347 88.4844 17.768C88.167 18.0013 87.7564 18.118 87.2524 18.118C86.8604 18.118 86.5197 18.0527 86.2304 17.922C85.941 17.7913 85.703 17.6187 85.5164 17.404C85.3297 17.18 85.1944 16.928 85.1104 16.648C85.0264 16.3587 84.989 16.0553 84.9984 15.738H90.4164C90.435 15.2993 90.393 14.8373 90.2904 14.352C90.197 13.8667 90.0197 13.4187 89.7584 13.008C89.5064 12.5973 89.1657 12.2613 88.7364 12C88.3164 11.7293 87.7844 11.594 87.1404 11.594C86.6457 11.594 86.1884 11.6873 85.7684 11.874C85.3577 12.0607 84.9984 12.322 84.6904 12.658C84.3917 12.994 84.1584 13.3907 83.9904 13.848C83.8224 14.3053 83.7384 14.8093 83.7384 15.36C83.757 15.9107 83.8364 16.4193 83.9764 16.886C84.1257 17.3527 84.345 17.754 84.6344 18.09C84.9237 18.426 85.2784 18.6873 85.6984 18.874C86.1277 19.0607 86.6317 19.154 87.2104 19.154C88.0317 19.154 88.713 18.9487 89.2544 18.538C89.7957 18.1273 90.1457 17.516 90.3044 16.704Z" fill="#6F6C99"/>
<path fill-rule="evenodd" clip-rule="evenodd" d="M13 13H6V6L8.79289 8.79289L9.85355 7.73222C10.2441 7.3417 10.8772 7.3417 11.2678 7.73222C11.6583 8.12275 11.6583 8.75591 11.2678 9.14644L10.2071 10.2071L13 13ZM21.2678 13.7322H14.2678L17.0607 16.5251L16 17.5858C15.6095 17.9763 15.6095 18.6095 16 19C16.3905 19.3905 17.0237 19.3905 17.4142 19L18.4749 17.9393L21.2678 20.7322V13.7322Z" fill="#6F6C99"/>
</svg>
