<svg width="95" height="27" viewBox="0 0 95 27" fill="none" xmlns="http://www.w3.org/2000/svg">
<path d="M64.122 19L66.796 9.004H65.466L63.436 17.32H63.408L61.196 9.004H59.754L57.514 17.32H57.486L55.526 9.004H54.168L56.73 19H58.116L60.426 10.6H60.454L62.736 19H64.122ZM74.2494 18.972C74.0441 19.0933 73.7594 19.154 73.3954 19.154C73.0874 19.154 72.8401 19.07 72.6534 18.902C72.4761 18.7247 72.3874 18.44 72.3874 18.048C72.0607 18.44 71.6781 18.7247 71.2394 18.902C70.8101 19.07 70.3434 19.154 69.8394 19.154C69.5127 19.154 69.2001 19.1167 68.9014 19.042C68.6121 18.9673 68.3601 18.8507 68.1454 18.692C67.9307 18.5333 67.7581 18.328 67.6274 18.076C67.5061 17.8147 67.4454 17.502 67.4454 17.138C67.4454 16.7273 67.5154 16.3913 67.6554 16.13C67.7954 15.8687 67.9774 15.6587 68.2014 15.5C68.4347 15.332 68.6961 15.206 68.9854 15.122C69.2841 15.038 69.5874 14.968 69.8954 14.912C70.2221 14.8467 70.5301 14.8 70.8194 14.772C71.1181 14.7347 71.3794 14.688 71.6034 14.632C71.8274 14.5667 72.0047 14.478 72.1354 14.366C72.2661 14.2447 72.3314 14.072 72.3314 13.848C72.3314 13.5867 72.2801 13.3767 72.1774 13.218C72.0841 13.0593 71.9581 12.938 71.7994 12.854C71.6501 12.77 71.4774 12.714 71.2814 12.686C71.0947 12.658 70.9081 12.644 70.7214 12.644C70.2174 12.644 69.7974 12.742 69.4614 12.938C69.1254 13.1247 68.9434 13.484 68.9154 14.016H67.7254C67.7441 13.568 67.8374 13.19 68.0054 12.882C68.1734 12.574 68.3974 12.3267 68.6774 12.14C68.9574 11.944 69.2747 11.804 69.6294 11.72C69.9934 11.636 70.3807 11.594 70.7914 11.594C71.1181 11.594 71.4401 11.6173 71.7574 11.664C72.0841 11.7107 72.3781 11.8087 72.6394 11.958C72.9007 12.098 73.1107 12.2987 73.2694 12.56C73.4281 12.8213 73.5074 13.162 73.5074 13.582V17.306C73.5074 17.586 73.5214 17.7913 73.5494 17.922C73.5867 18.0527 73.6987 18.118 73.8854 18.118C73.9881 18.118 74.1094 18.0947 74.2494 18.048V18.972ZM72.3174 15.262C72.1681 15.374 71.9721 15.458 71.7294 15.514C71.4867 15.5607 71.2301 15.6027 70.9594 15.64C70.6981 15.668 70.4321 15.7053 70.1614 15.752C69.8907 15.7893 69.6481 15.8547 69.4334 15.948C69.2187 16.0413 69.0414 16.1767 68.9014 16.354C68.7707 16.522 68.7054 16.7553 68.7054 17.054C68.7054 17.25 68.7427 17.418 68.8174 17.558C68.9014 17.6887 69.0041 17.796 69.1254 17.88C69.2561 17.964 69.4054 18.0247 69.5734 18.062C69.7414 18.0993 69.9187 18.118 70.1054 18.118C70.4974 18.118 70.8334 18.0667 71.1134 17.964C71.3934 17.852 71.6221 17.7167 71.7994 17.558C71.9767 17.39 72.1074 17.2127 72.1914 17.026C72.2754 16.83 72.3174 16.648 72.3174 16.48V15.262ZM75.9269 9.004V19H77.1169V9.004H75.9269ZM79.5305 9.004V19H80.7205V9.004H79.5305ZM88.09 14.688H83.932C83.9506 14.408 84.0113 14.1467 84.114 13.904C84.2166 13.652 84.3566 13.4327 84.534 13.246C84.7113 13.0593 84.9213 12.9147 85.164 12.812C85.416 12.7 85.696 12.644 86.004 12.644C86.3026 12.644 86.5733 12.7 86.816 12.812C87.068 12.9147 87.2826 13.0593 87.46 13.246C87.6466 13.4233 87.7913 13.638 87.894 13.89C88.006 14.142 88.0713 14.408 88.09 14.688ZM89.238 16.704H88.062C87.9593 17.18 87.7446 17.5347 87.418 17.768C87.1006 18.0013 86.69 18.118 86.186 18.118C85.794 18.118 85.4533 18.0527 85.164 17.922C84.8746 17.7913 84.6366 17.6187 84.45 17.404C84.2633 17.18 84.128 16.928 84.044 16.648C83.96 16.3587 83.9226 16.0553 83.932 15.738H89.35C89.3686 15.2993 89.3266 14.8373 89.224 14.352C89.1306 13.8667 88.9533 13.4187 88.692 13.008C88.44 12.5973 88.0993 12.2613 87.67 12C87.25 11.7293 86.718 11.594 86.074 11.594C85.5793 11.594 85.122 11.6873 84.702 11.874C84.2913 12.0607 83.932 12.322 83.624 12.658C83.3253 12.994 83.092 13.3907 82.924 13.848C82.756 14.3053 82.672 14.8093 82.672 15.36C82.6906 15.9107 82.77 16.4193 82.91 16.886C83.0593 17.3527 83.2786 17.754 83.568 18.09C83.8573 18.426 84.212 18.6873 84.632 18.874C85.0613 19.0607 85.5653 19.154 86.144 19.154C86.9653 19.154 87.6466 18.9487 88.188 18.538C88.7293 18.1273 89.0793 17.516 89.238 16.704ZM92.7355 11.762V9.592H91.5455V11.762H90.3135V12.812H91.5455V17.418C91.5455 17.754 91.5782 18.0247 91.6435 18.23C91.7088 18.4353 91.8068 18.594 91.9375 18.706C92.0775 18.818 92.2548 18.8973 92.4695 18.944C92.6935 18.9813 92.9595 19 93.2675 19H94.1775V17.95H93.6315C93.4448 17.95 93.2908 17.9453 93.1695 17.936C93.0575 17.9173 92.9688 17.8847 92.9035 17.838C92.8382 17.7913 92.7915 17.726 92.7635 17.642C92.7448 17.558 92.7355 17.446 92.7355 17.306V12.812H94.1775V11.762H92.7355Z" fill="#6F6C99"/>
<path fill-rule="evenodd" clip-rule="evenodd" d="M9 7C7.89543 7 7 7.89543 7 9V18C7 19.1046 7.89543 20 9 20H18C19.1046 20 20 19.1046 20 18V9C20 7.89543 19.1046 7 18 7H9ZM14.5 12C13.6716 12 13 12.6716 13 13.5C13 14.3284 13.6716 15 14.5 15H16.5C17.3284 15 18 14.3284 18 13.5C18 12.6716 17.3284 12 16.5 12H14.5Z" fill="#6F6C99"/>
</svg>
