<svg width="158" height="27" viewBox="0 0 158 27" fill="none" xmlns="http://www.w3.org/2000/svg">
<path d="M56.814 14.87L58.508 10.208H58.536L60.202 14.87H56.814ZM57.808 9.004L53.916 19H55.274L56.394 15.99H60.622L61.714 19H63.184L59.278 9.004H57.808ZM69.3881 14.086H70.6201C70.5735 13.6567 70.4615 13.288 70.2841 12.98C70.1068 12.6627 69.8781 12.4013 69.5981 12.196C69.3275 11.9907 69.0101 11.8413 68.6461 11.748C68.2915 11.6453 67.9088 11.594 67.4981 11.594C66.9288 11.594 66.4295 11.6967 66.0001 11.902C65.5708 12.098 65.2115 12.3733 64.9221 12.728C64.6421 13.0733 64.4321 13.484 64.2921 13.96C64.1521 14.4267 64.0821 14.9307 64.0821 15.472C64.0821 16.0133 64.1521 16.5127 64.2921 16.97C64.4415 17.418 64.6561 17.8053 64.9361 18.132C65.2255 18.4587 65.5801 18.7107 66.0001 18.888C66.4295 19.0653 66.9195 19.154 67.4701 19.154C68.3941 19.154 69.1221 18.9113 69.6541 18.426C70.1955 17.9407 70.5315 17.25 70.6621 16.354H69.4441C69.3695 16.914 69.1641 17.348 68.8281 17.656C68.5015 17.964 68.0441 18.118 67.4561 18.118C67.0828 18.118 66.7608 18.0433 66.4901 17.894C66.2195 17.7447 66.0001 17.5487 65.8321 17.306C65.6641 17.054 65.5381 16.7693 65.4541 16.452C65.3795 16.1347 65.3421 15.808 65.3421 15.472C65.3421 15.108 65.3795 14.758 65.4541 14.422C65.5288 14.0767 65.6501 13.7733 65.8181 13.512C65.9955 13.2507 66.2288 13.0407 66.5181 12.882C66.8075 12.7233 67.1668 12.644 67.5961 12.644C68.1001 12.644 68.5015 12.77 68.8001 13.022C69.0988 13.274 69.2948 13.6287 69.3881 14.086ZM77.4077 14.086H78.6397C78.593 13.6567 78.481 13.288 78.3037 12.98C78.1263 12.6627 77.8977 12.4013 77.6177 12.196C77.347 11.9907 77.0297 11.8413 76.6657 11.748C76.311 11.6453 75.9283 11.594 75.5177 11.594C74.9483 11.594 74.449 11.6967 74.0197 11.902C73.5903 12.098 73.231 12.3733 72.9417 12.728C72.6617 13.0733 72.4517 13.484 72.3117 13.96C72.1717 14.4267 72.1017 14.9307 72.1017 15.472C72.1017 16.0133 72.1717 16.5127 72.3117 16.97C72.461 17.418 72.6757 17.8053 72.9557 18.132C73.245 18.4587 73.5997 18.7107 74.0197 18.888C74.449 19.0653 74.939 19.154 75.4897 19.154C76.4137 19.154 77.1417 18.9113 77.6737 18.426C78.215 17.9407 78.551 17.25 78.6817 16.354H77.4637C77.389 16.914 77.1837 17.348 76.8477 17.656C76.521 17.964 76.0637 18.118 75.4757 18.118C75.1023 18.118 74.7803 18.0433 74.5097 17.894C74.239 17.7447 74.0197 17.5487 73.8517 17.306C73.6837 17.054 73.5577 16.7693 73.4737 16.452C73.399 16.1347 73.3617 15.808 73.3617 15.472C73.3617 15.108 73.399 14.758 73.4737 14.422C73.5483 14.0767 73.6697 13.7733 73.8377 13.512C74.015 13.2507 74.2483 13.0407 74.5377 12.882C74.827 12.7233 75.1863 12.644 75.6157 12.644C76.1197 12.644 76.521 12.77 76.8197 13.022C77.1183 13.274 77.3143 13.6287 77.4077 14.086ZM81.3812 15.388C81.3812 14.9493 81.4372 14.562 81.5492 14.226C81.6705 13.8807 81.8339 13.5913 82.0392 13.358C82.2445 13.1247 82.4825 12.9473 82.7532 12.826C83.0332 12.7047 83.3272 12.644 83.6352 12.644C83.9432 12.644 84.2325 12.7047 84.5032 12.826C84.7832 12.9473 85.0259 13.1247 85.2312 13.358C85.4365 13.5913 85.5952 13.8807 85.7072 14.226C85.8285 14.562 85.8892 14.9493 85.8892 15.388C85.8892 15.8267 85.8285 16.2187 85.7072 16.564C85.5952 16.9 85.4365 17.1847 85.2312 17.418C85.0259 17.642 84.7832 17.8147 84.5032 17.936C84.2325 18.0573 83.9432 18.118 83.6352 18.118C83.3272 18.118 83.0332 18.0573 82.7532 17.936C82.4825 17.8147 82.2445 17.642 82.0392 17.418C81.8339 17.1847 81.6705 16.9 81.5492 16.564C81.4372 16.2187 81.3812 15.8267 81.3812 15.388ZM80.1212 15.388C80.1212 15.92 80.1959 16.4147 80.3452 16.872C80.4945 17.3293 80.7185 17.7307 81.0172 18.076C81.3159 18.412 81.6845 18.678 82.1232 18.874C82.5619 19.0607 83.0659 19.154 83.6352 19.154C84.2139 19.154 84.7179 19.0607 85.1472 18.874C85.5859 18.678 85.9545 18.412 86.2532 18.076C86.5519 17.7307 86.7759 17.3293 86.9252 16.872C87.0745 16.4147 87.1492 15.92 87.1492 15.388C87.1492 14.856 87.0745 14.3613 86.9252 13.904C86.7759 13.4373 86.5519 13.036 86.2532 12.7C85.9545 12.3547 85.5859 12.084 85.1472 11.888C84.7179 11.692 84.2139 11.594 83.6352 11.594C83.0659 11.594 82.5619 11.692 82.1232 11.888C81.6845 12.084 81.3159 12.3547 81.0172 12.7C80.7185 13.036 80.4945 13.4373 80.3452 13.904C80.1959 14.3613 80.1212 14.856 80.1212 15.388ZM95.0443 19V11.762H93.8543V15.85C93.8543 16.1767 93.8076 16.48 93.7143 16.76C93.6303 17.0307 93.4996 17.2687 93.3223 17.474C93.1449 17.6793 92.9209 17.838 92.6503 17.95C92.3889 18.062 92.0763 18.118 91.7123 18.118C91.2549 18.118 90.8956 17.9873 90.6343 17.726C90.3729 17.4647 90.2423 17.11 90.2423 16.662V11.762H89.0523V16.522C89.0523 16.914 89.0896 17.2733 89.1643 17.6C89.2483 17.9173 89.3883 18.1927 89.5843 18.426C89.7803 18.6593 90.0369 18.8413 90.3543 18.972C90.6716 19.0933 91.0683 19.154 91.5443 19.154C92.0763 19.154 92.5383 19.0513 92.9303 18.846C93.3223 18.6313 93.6443 18.3 93.8963 17.852H93.9243V19H95.0443ZM97.3315 11.762V19H98.5215V14.912C98.5215 14.5853 98.5635 14.2867 98.6475 14.016C98.7409 13.736 98.8762 13.4933 99.0535 13.288C99.2309 13.0827 99.4502 12.924 99.7115 12.812C99.9822 12.7 100.3 12.644 100.664 12.644C101.121 12.644 101.48 12.7747 101.742 13.036C102.003 13.2973 102.134 13.652 102.134 14.1V19H103.324V14.24C103.324 13.848 103.282 13.4933 103.198 13.176C103.123 12.8493 102.988 12.5693 102.792 12.336C102.596 12.1027 102.339 11.9207 102.022 11.79C101.704 11.6593 101.308 11.594 100.832 11.594C99.7582 11.594 98.9742 12.0327 98.4795 12.91H98.4515V11.762H97.3315ZM107.263 11.762V9.592H106.073V11.762H104.841V12.812H106.073V17.418C106.073 17.754 106.106 18.0247 106.171 18.23C106.236 18.4353 106.334 18.594 106.465 18.706C106.605 18.818 106.782 18.8973 106.997 18.944C107.221 18.9813 107.487 19 107.795 19H108.705V17.95H108.159C107.972 17.95 107.818 17.9453 107.697 17.936C107.585 17.9173 107.496 17.8847 107.431 17.838C107.366 17.7913 107.319 17.726 107.291 17.642C107.272 17.558 107.263 17.446 107.263 17.306V12.812H108.705V11.762H107.263ZM120.401 11.93H121.661C121.643 11.3793 121.535 10.908 121.339 10.516C121.153 10.1147 120.891 9.78333 120.555 9.522C120.229 9.26067 119.846 9.06933 119.407 8.948C118.969 8.82667 118.493 8.766 117.979 8.766C117.522 8.766 117.074 8.82667 116.635 8.948C116.206 9.06 115.819 9.23733 115.473 9.48C115.137 9.71333 114.867 10.0167 114.661 10.39C114.456 10.754 114.353 11.188 114.353 11.692C114.353 12.1493 114.442 12.532 114.619 12.84C114.806 13.1387 115.049 13.386 115.347 13.582C115.655 13.7687 116.001 13.9227 116.383 14.044C116.766 14.156 117.153 14.2587 117.545 14.352C117.947 14.436 118.339 14.52 118.721 14.604C119.104 14.688 119.445 14.8 119.743 14.94C120.051 15.0707 120.294 15.2433 120.471 15.458C120.658 15.6727 120.751 15.9527 120.751 16.298C120.751 16.662 120.677 16.9607 120.527 17.194C120.378 17.4273 120.182 17.614 119.939 17.754C119.697 17.8847 119.421 17.978 119.113 18.034C118.815 18.09 118.516 18.118 118.217 18.118C117.844 18.118 117.48 18.0713 117.125 17.978C116.771 17.8847 116.458 17.74 116.187 17.544C115.926 17.348 115.711 17.1007 115.543 16.802C115.385 16.494 115.305 16.13 115.305 15.71H114.045C114.045 16.3167 114.153 16.844 114.367 17.292C114.591 17.7307 114.89 18.0947 115.263 18.384C115.646 18.664 116.085 18.874 116.579 19.014C117.083 19.154 117.615 19.224 118.175 19.224C118.633 19.224 119.09 19.168 119.547 19.056C120.014 18.9533 120.434 18.7853 120.807 18.552C121.181 18.3093 121.484 18.0013 121.717 17.628C121.96 17.2453 122.081 16.788 122.081 16.256C122.081 15.7613 121.988 15.3507 121.801 15.024C121.624 14.6973 121.381 14.4267 121.073 14.212C120.775 13.9973 120.434 13.8293 120.051 13.708C119.669 13.5773 119.277 13.4653 118.875 13.372C118.483 13.2787 118.096 13.1947 117.713 13.12C117.331 13.036 116.985 12.9333 116.677 12.812C116.379 12.6907 116.136 12.5367 115.949 12.35C115.772 12.154 115.683 11.902 115.683 11.594C115.683 11.2673 115.744 10.9967 115.865 10.782C115.996 10.558 116.164 10.3807 116.369 10.25C116.584 10.1193 116.827 10.026 117.097 9.97C117.368 9.914 117.643 9.886 117.923 9.886C118.614 9.886 119.179 10.0493 119.617 10.376C120.065 10.6933 120.327 11.2113 120.401 11.93ZM128.527 14.688H124.369C124.388 14.408 124.449 14.1467 124.551 13.904C124.654 13.652 124.794 13.4327 124.971 13.246C125.149 13.0593 125.359 12.9147 125.601 12.812C125.853 12.7 126.133 12.644 126.441 12.644C126.74 12.644 127.011 12.7 127.253 12.812C127.505 12.9147 127.72 13.0593 127.897 13.246C128.084 13.4233 128.229 13.638 128.331 13.89C128.443 14.142 128.509 14.408 128.527 14.688ZM129.675 16.704H128.499C128.397 17.18 128.182 17.5347 127.855 17.768C127.538 18.0013 127.127 18.118 126.623 18.118C126.231 18.118 125.891 18.0527 125.601 17.922C125.312 17.7913 125.074 17.6187 124.887 17.404C124.701 17.18 124.565 16.928 124.481 16.648C124.397 16.3587 124.36 16.0553 124.369 15.738H129.787C129.806 15.2993 129.764 14.8373 129.661 14.352C129.568 13.8667 129.391 13.4187 129.129 13.008C128.877 12.5973 128.537 12.2613 128.107 12C127.687 11.7293 127.155 11.594 126.511 11.594C126.017 11.594 125.559 11.6873 125.139 11.874C124.729 12.0607 124.369 12.322 124.061 12.658C123.763 12.994 123.529 13.3907 123.361 13.848C123.193 14.3053 123.109 14.8093 123.109 15.36C123.128 15.9107 123.207 16.4193 123.347 16.886C123.497 17.3527 123.716 17.754 124.005 18.09C124.295 18.426 124.649 18.6873 125.069 18.874C125.499 19.0607 126.003 19.154 126.581 19.154C127.403 19.154 128.084 18.9487 128.625 18.538C129.167 18.1273 129.517 17.516 129.675 16.704ZM132.673 11.762V9.592H131.483V11.762H130.251V12.812H131.483V17.418C131.483 17.754 131.516 18.0247 131.581 18.23C131.646 18.4353 131.744 18.594 131.875 18.706C132.015 18.818 132.192 18.8973 132.407 18.944C132.631 18.9813 132.897 19 133.205 19H134.115V17.95H133.569C133.382 17.95 133.228 17.9453 133.107 17.936C132.995 17.9173 132.906 17.8847 132.841 17.838C132.776 17.7913 132.729 17.726 132.701 17.642C132.682 17.558 132.673 17.446 132.673 17.306V12.812H134.115V11.762H132.673ZM137.089 11.762V9.592H135.899V11.762H134.667V12.812H135.899V17.418C135.899 17.754 135.932 18.0247 135.997 18.23C136.062 18.4353 136.16 18.594 136.291 18.706C136.431 18.818 136.608 18.8973 136.823 18.944C137.047 18.9813 137.313 19 137.621 19H138.531V17.95H137.985C137.798 17.95 137.644 17.9453 137.523 17.936C137.411 17.9173 137.322 17.8847 137.257 17.838C137.192 17.7913 137.145 17.726 137.117 17.642C137.098 17.558 137.089 17.446 137.089 17.306V12.812H138.531V11.762H137.089ZM141.113 10.46V9.004H139.923V10.46H141.113ZM139.923 11.762V19H141.113V11.762H139.923ZM142.957 11.762V19H144.147V14.912C144.147 14.5853 144.189 14.2867 144.273 14.016C144.366 13.736 144.501 13.4933 144.679 13.288C144.856 13.0827 145.075 12.924 145.337 12.812C145.607 12.7 145.925 12.644 146.289 12.644C146.746 12.644 147.105 12.7747 147.367 13.036C147.628 13.2973 147.759 13.652 147.759 14.1V19H148.949V14.24C148.949 13.848 148.907 13.4933 148.823 13.176C148.748 12.8493 148.613 12.5693 148.417 12.336C148.221 12.1027 147.964 11.9207 147.647 11.79C147.329 11.6593 146.933 11.594 146.457 11.594C145.383 11.594 144.599 12.0327 144.105 12.91H144.077V11.762H142.957ZM156.98 18.384V11.762H155.86V12.798H155.846C155.631 12.3967 155.333 12.098 154.95 11.902C154.567 11.6967 154.147 11.594 153.69 11.594C153.065 11.594 152.537 11.7153 152.108 11.958C151.679 12.1913 151.333 12.4947 151.072 12.868C150.811 13.232 150.624 13.6427 150.512 14.1C150.4 14.548 150.344 14.9867 150.344 15.416C150.344 15.9107 150.409 16.382 150.54 16.83C150.68 17.2687 150.885 17.656 151.156 17.992C151.427 18.3187 151.763 18.58 152.164 18.776C152.565 18.972 153.037 19.07 153.578 19.07C154.045 19.07 154.483 18.9673 154.894 18.762C155.314 18.5473 155.627 18.216 155.832 17.768H155.86V18.244C155.86 18.6453 155.818 19.014 155.734 19.35C155.659 19.686 155.533 19.9707 155.356 20.204C155.179 20.4467 154.955 20.6333 154.684 20.764C154.413 20.904 154.082 20.974 153.69 20.974C153.494 20.974 153.289 20.9507 153.074 20.904C152.859 20.8667 152.659 20.8013 152.472 20.708C152.295 20.6147 152.141 20.4933 152.01 20.344C151.889 20.1947 151.823 20.0127 151.814 19.798H150.624C150.643 20.19 150.745 20.5213 150.932 20.792C151.119 21.0627 151.352 21.282 151.632 21.45C151.921 21.618 152.239 21.7393 152.584 21.814C152.939 21.8887 153.284 21.926 153.62 21.926C154.777 21.926 155.627 21.632 156.168 21.044C156.709 20.456 156.98 19.5693 156.98 18.384ZM153.648 18.034C153.256 18.034 152.929 17.9547 152.668 17.796C152.407 17.628 152.197 17.4133 152.038 17.152C151.879 16.8813 151.767 16.5827 151.702 16.256C151.637 15.9293 151.604 15.6027 151.604 15.276C151.604 14.9307 151.641 14.5993 151.716 14.282C151.8 13.9647 151.926 13.6847 152.094 13.442C152.271 13.1993 152.495 13.008 152.766 12.868C153.037 12.7187 153.363 12.644 153.746 12.644C154.119 12.644 154.437 12.7187 154.698 12.868C154.959 13.0173 155.169 13.218 155.328 13.47C155.496 13.7127 155.617 13.988 155.692 14.296C155.767 14.604 155.804 14.9167 155.804 15.234C155.804 15.57 155.762 15.906 155.678 16.242C155.603 16.578 155.482 16.8813 155.314 17.152C155.146 17.4133 154.922 17.628 154.642 17.796C154.371 17.9547 154.04 18.034 153.648 18.034Z" fill="#6F6C99"/>
<path d="M12.3157 21.2501C12.6866 21.9784 13.7271 21.9784 14.0979 21.2501L17.7924 13.9951C18.0627 13.4642 17.8118 12.8161 17.2543 12.6057L14.3961 11.5269C13.7333 11.2768 13.0033 11.2692 12.3355 11.5057L9.1893 12.6195C8.61988 12.8211 8.35781 13.4777 8.63192 14.016L12.3157 21.2501Z" fill="#6F6C99"/>
<circle cx="13.5" cy="7.5" r="2.5" fill="#6F6C99"/>
</svg>
